<?xml version="1.0" encoding="UTF-8"?>
<svg width="260px" height="260px" viewBox="0 0 260 260" version="1.1" xmlns="http://www.w3.org/2000/svg" xmlns:xlink="http://www.w3.org/1999/xlink">
    <!-- Generator: Sketch 49.3 (51167) - http://www.bohemiancoding.com/sketch -->
    <title>marisa-morby</title>
    <desc>Created with Sketch.</desc>
    <defs></defs>
    <g id="marisa-morby" stroke="none" stroke-width="1" fill="none" fill-rule="evenodd">
        <g id="marisa-logo" transform="translate(5.000000, 5.000000)" fill="#2B4B54">
            <path d="M124.999989,0.792434518 C91.1113056,0.756490938 58.6895305,14.6149816 35.2972777,39.1353132 C39.2479285,37.8418266 43.3788524,37.1836178 47.5358642,37.1852543 C65.1029557,37.1852543 70.8123639,56.5078128 70.8123639,81.5439199 C70.8123639,101.305345 67.3014298,124.142978 63.7739346,143.465537 C78.2648185,83.7382537 95.3971834,38.5018546 111.204668,38.5018546 C130.088359,38.5018546 135.358901,48.6040707 135.358901,66.610029 C135.358901,115.796229 134.920034,140.393469 131.843826,156.200954 C145.895844,125.459578 164.986548,62.3414286 190.461522,38.2037564 C191.778122,37.3260228 192.655856,36.8871561 193.976596,36.8871561 C198.808271,36.8871561 214.176888,46.9893723 214.176888,52.2599137 C214.244347,53.0196554 214.09201,53.7827767 213.738022,54.4583878 C202.770493,79.0432074 199.93856,105.694013 199.93856,132.03844 C199.93856,157.509273 207.842302,184.739714 221.020726,184.739714 C226.303688,184.739714 234.021119,183.286486 240.960182,169.520146 C246.42161,155.312957 249.217448,140.220763 249.207565,125.00001 C249.207565,56.4001663 193.599833,0.792434518 124.999989,0.792434518 Z" id="Shape"></path>
            <path d="M168.307031,125.00001 C168.307031,110.509127 169.184764,98.2084363 169.184764,92.0601613 C156.465908,113.163028 144.624786,171.917352 134.961437,200.90326 C134.961437,203.979468 131.885229,205.296068 128.374295,205.296068 C117.394345,205.296068 104.658928,205.296068 104.658928,199.147793 L104.658928,198.696505 C106.414395,182.897302 105.954827,145.659871 105.954827,111.403421 C105.954827,89.0046549 104.634087,71.8764302 102.000886,71.8764302 C91.0209365,71.8764302 74.567573,122.114254 65.3430903,198.535036 C65.3430903,208.198385 59.1948153,212.148186 51.72994,212.148186 C41.6277238,212.148186 30.2006268,204.695731 29.7866016,193.703361 C31.1032019,184.040012 42.286024,119.311303 42.286024,81.0884921 C42.286024,66.1546012 40.0916901,56.0565253 34.8335694,56.0565253 C28.0021527,56.0565253 14.1944105,70.4439028 6.5846264,87.5224445 C2.74560301,99.6445288 0.792069577,112.284546 0.792413107,125.00001 C0.792413107,193.599855 56.4001448,249.207586 124.999989,249.207586 C160.170756,249.245314 193.699755,234.331495 217.224114,208.185964 C214.199496,209.216151 211.029165,209.754324 207.834021,209.779962 C173.138705,209.779962 168.307031,161.020207 168.307031,125.00001 L168.307031,125.00001 Z" id="Shape"></path>
        </g>
    </g>
</svg>