<svg id="Layer_1" data-name="Layer 1" xmlns="http://www.w3.org/2000/svg" viewBox="0 0 600 600"><defs><style>.cls-1{fill:#fffefa}</style></defs><title>marisamorby-logo</title><path class="cls-1" d="M180.07 134.53q.3 22-15.22 36.76T124 186.06h-.6q-24.71 0-39.78-14.77t-15.05-36.76q0-22.29 15.52-36.91T124.62 83q25 0 40.08 14.61t15.37 36.92zm-6.33 92.21v298.62H74.3V226.74h99.44zM531.43 354.2v171.16h-99.14V365.65q0-31.64-12.2-49.57T382 298.15q-19 0-31.79 10.4A64.06 64.06 0 0 0 331 334.31q-3.32 9-3.32 24.41v166.64h-99.1q.6-120.23.6-195t-.3-89.2l-.3-14.46h99.14v43.39h-.6a131.08 131.08 0 0 1 12.36-16.88 128.48 128.48 0 0 1 17-15.67q10.69-8.43 26.22-13.11a119.49 119.49 0 0 1 34.5-4.67q51.53 0 82.87 34.2t31.36 100.24z"/></svg>