<svg width="236" height="40" viewBox="0 0 236 40" version="1.1" xmlns="http://www.w3.org/2000/svg"><title>logo</title><g id="Page-1" stroke="none" stroke-width="1" fill="none" fill-rule="evenodd"><g id="landing-desktop"><g id="Header"><g id="logo"><ellipse id="Oval" opacity=".3" fill="#A3A3A3" cx="30.744" cy="38.506" rx="11.6" ry="1.494"/><g id="Group" fill="#259CC4"><path d="M47.447 19.799a16.661 16.661 0 0 0-.702-8.537C44.438 4.807 38.245.174 30.988.174c-7.303 0-13.526 4.69-15.8 11.207a16.65 16.65 0 0 0-.632 8.569c.206 1.087.52 2.136.926 3.138a16.743 16.743 0 0 0 4.934 6.662 16.677 16.677 0 0 0 10.572 3.763c4.148 0 7.948-1.515 10.875-4.017a16.751 16.751 0 0 0 4.697-6.573 16.5 16.5 0 0 0 .887-3.124zm-16.46 10.09c-7.216 0-13.086-5.853-13.086-13.046 0-6.469 4.75-11.853 10.955-12.87L26.13 19.47l4.858 6.818 4.856-6.818L33.12 3.972c6.206 1.018 10.955 6.402 10.955 12.87 0 7.194-5.87 13.047-13.087 13.047zM13.535 24.231l-5.081-2.2 1.943 3.7 6.1 2.501a10.041 10.041 0 0 1-2.962-4zM11.707 21.132l1.068.453c-.42-1.774-.587-3.272-.606-4.52v-.008c-.132-2.386.831-5.199.831-5.2L.174 6.373l6.61 12.587 4.917 2.146a.42.42 0 0 0 .006.026zM45.378 28.433l6.21-2.548 1.981-3.768-5.175 2.242a10.23 10.23 0 0 1-3.016 4.074zM48.94 11.757s.98 2.866.845 5.296v.008c-.02 1.271-.189 2.796-.617 4.602l1.088-.46.006-.027 5.006-2.185 6.73-12.818-13.058 5.584z" id="Shape"/></g><path d="M86.807 1.809h-11.3v4.863h7.561c.615 0 .968.35.968.964v15.815c0 3.377-1.935 4.647-4.044 4.647-2.066 0-4.088-1.183-4.088-4.907V21.92h-5.758v1.797c0 6.705 4.922 9.728 9.802 9.728s9.847-2.935 9.847-9.728V4.79c0-2.06-.921-2.98-2.988-2.98zM104.433 10.047c-6.814 0-12.265 4.864-12.265 11.699 0 6.88 5.451 11.699 12.265 11.699 6.859 0 12.31-4.82 12.31-11.7 0-6.834-5.451-11.698-12.31-11.698zm0 18.666c-3.605 0-6.637-2.804-6.637-6.967 0-4.12 3.032-6.967 6.637-6.967 3.65 0 6.683 2.847 6.683 6.967 0 4.163-3.034 6.967-6.683 6.967zM131.38 10.047c-4.748 0-6.727 3.11-6.727 3.11h-.086s.086-.788.086-1.884V4.79c0-2.06-.923-2.98-2.989-2.98h-5.318v4.733h1.758c.617 0 .968.306.968.964v25.413h5.276V31.78c0-.874-.089-1.488-.089-1.488h.09s2.02 3.154 6.679 3.154c5.935 0 10.287-4.6 10.287-11.7 0-6.923-3.868-11.7-9.935-11.7zm-1.318 18.71c-3.738 0-5.584-3.42-5.584-6.882 0-4.95 2.726-7.053 5.627-7.053 3.298 0 5.583 2.76 5.583 7.01 0 4.427-2.594 6.924-5.626 6.924z" id="Shape" fill="#A3A3A3"/><path d="M164.436 4.789v10.21h-13.757V4.789c0-2.06-.878-2.98-2.99-2.98h-5.627v4.864h1.891c.618 0 .97.35.97.964V32.92h5.756V19.862h13.757v13.056h5.76V7.638c0-.614.353-.965.968-.965h1.89V1.81h-5.627c-2.066 0-2.991.92-2.991 2.98zM184.924 10.047c-6.726 0-11.386 4.82-11.386 11.699 0 6.353 4.615 11.699 12.045 11.699 5.583 0 9.012-3.376 9.012-3.376l-2.33-3.854s-2.683 2.498-6.286 2.498c-3.386 0-6.288-2.06-6.726-6.003h15.473s.132-1.403.132-2.06c0-5.916-3.517-10.603-9.934-10.603zm-5.497 8.806c.617-2.803 2.639-4.513 5.497-4.513 2.285 0 4.132 1.841 4.22 4.513h-9.717zM211.563 10.353s-.527-.086-1.01-.086c-3.432 0-6.112 2.542-7.122 5.739h-.089s.089-.57.089-1.403v-1.314c0-1.884-1.012-2.718-2.99-2.718h-5.1v4.734h1.76c.614 0 .967.306.967.964v16.65h5.539v-8.851c0-1.317.176-2.54.483-3.637 1.01-3.33 3.736-4.69 6.11-4.69a9.87 9.87 0 0 1 1.364.09v-5.478h-.001zM223.166 10.047c-6.812 0-12.262 4.864-12.262 11.699 0 6.88 5.45 11.699 12.262 11.699 6.86 0 12.31-4.82 12.31-11.7 0-6.834-5.45-11.698-12.31-11.698zm0 18.666c-3.603 0-6.637-2.804-6.637-6.967 0-4.12 3.034-6.967 6.637-6.967 3.65 0 6.683 2.847 6.683 6.967 0 4.163-3.032 6.967-6.683 6.967z" id="Shape" fill="#259CC4"/></g></g></g></g></svg>