<svg xmlns="http://www.w3.org/2000/svg" viewBox="0 0 600 600"><defs><style>.a{fill:#fffefa}</style></defs><path class="a" d="M300 0A299 299 0 0 0 83.34 92.61a94.88 94.88 0 0 1 29.56-4.71c42.43 0 56.22 46.67 56.22 107.14 0 47.73-8.48 102.89-17 149.56 35-144.26 76.38-253.52 114.56-253.52 45.61 0 58.34 24.4 58.34 67.89 0 118.8-1.06 178.21-8.49 216.39 33.94-74.25 80.05-226.7 141.58-285 3.18-2.12 5.3-3.18 8.49-3.18 11.67 0 48.79 24.4 48.79 37.13a9.61 9.61 0 0 1-1.06 5.31C487.84 189 481 253.37 481 317c0 61.52 19.09 127.29 50.92 127.29 12.76 0 31.4-3.51 48.16-36.76A299.14 299.14 0 0 0 600 300C600 134.31 465.69 0 300 0z"/><path class="a" d="M404.6 300c0-35 2.12-64.71 2.12-79.56-30.72 50.97-59.32 192.88-82.66 262.89 0 7.43-7.43 10.61-15.91 10.61-26.52 0-57.28 0-57.28-14.85V478c4.24-38.16 3.13-128.1 3.13-210.84 0-54.1-3.19-95.47-9.55-95.47-26.52 0-66.26 121.34-88.54 305.92 0 23.34-14.85 32.88-32.88 32.88-24.4 0-52-18-53-44.55 3.18-23.34 30.19-179.68 30.19-272 0-36.07-5.3-60.46-18-60.46-16.5 0-49.85 34.75-68.23 76A299.79 299.79 0 0 0 0 300c0 165.69 134.31 300 300 300a299.21 299.21 0 0 0 222.75-99.08 72.14 72.14 0 0 1-22.68 3.85c-83.8 0-95.47-117.77-95.47-204.77z"/></svg>