<?xml version="1.0" encoding="UTF-8"?>
<svg width="40px" height="40px" viewBox="0 0 40 40" version="1.1" xmlns="http://www.w3.org/2000/svg" xmlns:xlink="http://www.w3.org/1999/xlink">
    <!-- Generator: Sketch 41 (35326) - http://www.bohemiancoding.com/sketch -->
    <title>icon-twitter</title>
    <desc>Created with Sketch.</desc>
    <defs></defs>
    <g id="Page-1" stroke="none" stroke-width="1" fill="none" fill-rule="evenodd">
        <g id="icon-twitter">
            <circle id="Oval-2" fill="#25E593" cx="20" cy="20" r="20"></circle>
            <g id="icon_twitter" transform="translate(9.000000, 11.000000)" fill="#FAFAFA">
                <g id="Layer_1">
                    <path d="M25.0340326,2.44601047 C24.3366798,3.47065698 23.4672063,4.36684516 22.464126,5.09487765 C22.4746541,5.24297277 22.4799182,5.46511544 22.4799182,5.76130568 C22.4771405,7.15524769 22.2741568,8.54156411 21.8771851,9.87778845 C21.4627651,11.27427 20.8455538,12.6023383 20.0452976,13.819505 C19.2350387,15.0672281 18.249319,16.1917641 17.1184889,17.1584884 C15.9867193,18.1260197 14.6224545,18.8980796 13.0256943,19.4746679 C11.4289342,20.0512563 9.72092719,20.339375 7.90167342,20.339024 C5.03557668,20.339024 2.41302972,19.5724037 0.0340325573,18.039163 C0.444848607,18.0837435 0.857860771,18.1050092 1.27108301,18.1028579 C3.65043111,18.1028579 5.77078822,17.3732614 7.63215435,15.9140682 C5.44065757,15.8735211 3.5165432,14.4462935 2.84187388,12.3608382 C3.16194082,12.4115083 3.4853601,12.4380787 3.80940525,12.4403253 C4.26439919,12.4404126 4.71750656,12.3818501 5.15752704,12.2660854 C3.99990019,12.0390356 2.958586,11.4131294 2.21492618,10.4973665 C1.43760228,9.56141938 1.04894033,8.4749206 1.04894033,7.23787015 L1.04894033,7.17417521 C1.7577716,7.57336989 2.55210274,7.79650473 3.3651199,7.82481111 C2.66930073,7.36196859 2.09745466,6.73572123 1.69957623,6.0008197 C0.847507742,4.42554507 0.877628476,2.52015931 1.7790633,0.972604422 C3.05515171,2.54580206 4.64636561,3.83451676 6.45037636,4.75587318 C8.27794809,5.70090156 10.2882413,6.23961345 12.3434741,6.33508652 C12.2605128,5.94926357 12.2179952,5.55584371 12.2166107,5.16120461 C12.2166107,3.74412384 12.716344,2.53585016 13.7158105,1.53638359 C14.7152771,0.536917008 15.9235508,0.03718372 17.3406316,0.03718372 C18.8208809,0.03718372 20.0688103,0.57657281 21.08442,1.65535099 C22.232152,1.43525941 23.3326911,1.01663412 24.3365467,0.41830054 C23.9431471,1.63254013 23.1921434,2.57269847 22.0835356,3.23877557 C23.1012522,3.12411941 24.0959021,2.85686825 25.0340326,2.44601047 L25.0340326,2.44601047 Z" id="Shape"></path>
                </g>
            </g>
        </g>
    </g>
</svg>