<?xml version="1.0" encoding="UTF-8"?>
<svg width="40px" height="40px" viewBox="0 0 40 40" version="1.1" xmlns="http://www.w3.org/2000/svg" xmlns:xlink="http://www.w3.org/1999/xlink">
    <!-- Generator: Sketch 41 (35326) - http://www.bohemiancoding.com/sketch -->
    <title>icon-linkedin</title>
    <desc>Created with Sketch.</desc>
    <defs></defs>
    <g id="Page-1" stroke="none" stroke-width="1" fill="none" fill-rule="evenodd">
        <g id="icon-linkedin">
            <circle id="Oval-2" fill="#25E593" cx="20" cy="20" r="20"></circle>
            <g id="icon_linkedin" transform="translate(9.000000, 8.000000)" fill="#FAFAFA">
                <g id="Layer_1">
                    <path d="M5.55475913,2.55408885 C5.56467215,3.28104344 5.31321195,3.88838096 4.80037853,4.3761014 C4.28754511,4.86382184 3.61263386,5.10784728 2.77564479,5.10817771 L2.74590574,5.10817771 C1.92940356,5.10817771 1.27217053,4.86415227 0.774206635,4.3761014 C0.276242743,3.88805052 0.0275912309,3.28071301 0.0282520987,2.55408885 C0.0282520987,1.81755168 0.284668808,1.20773592 0.797502225,0.72464155 C1.31033564,0.241547183 1.97995995,0 2.80637514,0 C3.6324599,0 4.29464944,0.241381966 4.79294377,0.724145899 C5.29123809,1.20690983 5.54517655,1.81689082 5.55475913,2.55408885 Z M5.24101214,7.12448539 L5.24101214,21.9256112 L0.312260038,21.9256112 L0.312260038,7.12448539 L5.24101214,7.12448539 L5.24101214,7.12448539 Z M22.9699476,13.4420512 L22.9699476,21.9256112 L18.056065,21.9256112 L18.056065,14.0095714 C18.056065,12.9640785 17.8545003,12.1450981 17.4513709,11.5526301 C17.0482416,10.9601621 16.4189302,10.6639281 15.5634368,10.6639281 C14.9356124,10.6639281 14.4103877,10.8357538 13.9877628,11.179405 C13.5670565,11.5171952 13.2393651,11.956619 13.0356175,12.4562016 C12.9259134,12.7535921 12.8710614,13.1568867 12.8710614,13.6660854 L12.8710614,21.9256112 L7.95916143,21.9256112 C7.97898746,17.9528044 7.98890048,14.7310738 7.98890048,12.2604195 C7.98890048,9.78976525 7.98394397,8.31603004 7.97403095,7.83921392 L7.95916143,7.12250278 L12.873044,7.12250278 L12.873044,9.27313184 L12.8433049,9.27313184 C13.0248952,8.97836845 13.2297557,8.69859133 13.4559294,8.4364732 C13.7128857,8.15278146 13.9948961,7.89283426 14.2985359,7.65978831 C14.6517697,7.38123253 15.0849685,7.16463311 15.5981324,7.00999004 C16.1537737,6.84976473 16.7298857,6.77178088 17.3081278,6.77852109 C19.0108538,6.77852109 20.3800066,7.34356306 21.4155865,8.47364701 C22.4511663,9.60373096 22.9692867,11.2598657 22.9699476,13.4420512 Z" id="Shape"></path>
                </g>
            </g>
        </g>
    </g>
</svg>