<?xml version="1.0" encoding="UTF-8"?>
<svg width="40px" height="40px" viewBox="0 0 40 40" version="1.1" xmlns="http://www.w3.org/2000/svg" xmlns:xlink="http://www.w3.org/1999/xlink">
    <!-- Generator: Sketch 41 (35326) - http://www.bohemiancoding.com/sketch -->
    <title>icon-facebook</title>
    <desc>Created with Sketch.</desc>
    <defs></defs>
    <g id="Page-1" stroke="none" stroke-width="1" fill="none" fill-rule="evenodd">
        <g id="icon-facebook">
            <circle id="Oval-2" fill="#25E593" cx="20" cy="20" r="20"></circle>
            <g id="icon_facebook" transform="translate(14.000000, 7.000000)" fill="#FAFAFA">
                <g id="Layer_1">
                    <path d="M8.07046278,8.52402414 L12.1216499,8.52402414 L11.6508249,13.0010463 L8.07255533,13.0010463 L8.07255533,25.9905835 L2.69521127,25.9905835 L2.69521127,13.0010463 L0.0151710262,13.0010463 L0.0151710262,8.52402414 L2.69521127,8.52402414 L2.69521127,5.82881288 C2.69521127,3.9162173 3.14720322,2.46886653 4.05118712,1.48676056 C4.95517103,0.504654594 6.44228035,0.0132528504 8.51251509,0.012555332 L12.0907847,0.012555332 L12.0907847,4.48853119 L9.85227364,4.48853119 C9.44248156,4.48853119 9.11412475,4.52340711 8.86720322,4.59315895 C8.62028169,4.6629108 8.44154259,4.78637156 8.33098592,4.96354125 C8.22559967,5.12947242 8.15329959,5.31421955 8.11806841,5.50760563 C8.08166105,5.7661158 8.06591703,6.02711669 8.07098592,6.28812877 L8.07098592,8.52663984 L8.07046278,8.52402414 Z" id="Shape"></path>
                </g>
            </g>
        </g>
    </g>
</svg>