<svg width="1728" height="1117" viewBox="0 0 1728 1117" fill="none" xmlns="http://www.w3.org/2000/svg">
<g clip-path="url(#clip0_538_45)">
<rect width="1728" height="1117" fill="white"/>
<path d="M1127.6 131.245C1043.9 100.777 948.438 -4.80859 948.438 -4.80859H1734.35V335.324C1734.35 335.324 1632.41 397.045 1558.36 406.361C1481.76 415.997 1423.36 423.99 1362.68 378.669C1287.44 322.476 1382.13 205.746 1304.22 152.917C1247.66 114.563 1192.53 154.878 1127.6 131.245Z" fill="#FFD8DB" fill-opacity="0.47"/>
<path d="M1043.28 854.83C916.802 845.553 880 1120.92 880 1120.92H1734.52C1734.52 1120.92 1888 777.544 1734.52 724.796C1589.6 674.986 1594.94 959.386 1444.18 928.876C1319.02 903.549 1315.2 639.835 1116.34 724.796C1019.33 766.245 1272.85 966.355 1167.17 978.241C1087.32 987.221 1123.45 860.71 1043.28 854.83Z" fill="#FFD8DB" fill-opacity="0.47"/>
<path d="M248.993 211.237C75.3322 190.538 -77.1769 217.061 -172.233 356.32C-268.076 496.733 -226.679 639.671 -136.019 783.142C-60.9404 901.955 14.9243 989.135 160.682 999.262C275.238 1007.22 343.487 963.908 434.511 897.523C581.37 790.417 681.289 663.639 640.359 492.373C598 315.128 439.288 233.918 248.993 211.237Z" fill="#FFD8DB" fill-opacity="0.47"/>
<path d="M696.061 1013.7C748.111 972.715 751.507 887.068 799.378 833.205C868.515 755.414 993.403 820.533 1004.54 736.377C1014.01 664.846 956.484 615.016 884.852 590.72C783.072 556.198 644.849 721.42 644.849 721.42C644.849 721.42 574.62 821.059 531.009 781.262C497.274 750.478 510.269 670.182 477.822 634.76C407.922 558.452 453.778 896.054 380.537 938.985C327.875 969.853 290.84 881.186 235.444 896.227C126.715 925.751 32.7824 1062.8 52.0142 1262.53C75.1624 1502.92 272.097 1559.06 386.987 1450.83C482.067 1361.27 401.811 1077.8 500.18 999.121C567.915 944.944 628.134 1067.2 696.061 1013.7Z" stroke="#737373"/>
<path d="M1058.88 338.403C869.815 242.649 1083.5 -31.8804 1261.56 -145.008C1459.36 -270.68 1761.53 -294.644 1868.93 -93.2353C1964.58 86.1255 1823.34 251.326 1663.09 382.951C1606.43 429.487 1574.54 472.931 1499.81 478.67C1343.97 490.636 1501.02 123.27 1344.78 128.905C1219.29 133.431 1267.07 377.396 1142.11 365.493C1107.92 362.236 1089.19 353.753 1058.88 338.403Z" stroke="#737373"/>
<path d="M238.89 114.243C175.715 126.936 192.511 149.049 187.21 177.672C182.213 204.657 189.206 222.897 210.179 245.33C229.254 265.733 233.156 287.609 279.086 283.388C325.016 279.167 376.711 249.551 388.188 228.415C399.665 207.28 368.834 198.038 370.961 177.672C372.593 162.052 388.812 155.274 388.188 139.614C386.432 95.569 302.065 101.549 238.89 114.243Z" stroke="#8C3426"/>
<path d="M767.751 190.643C802.048 219.742 777.251 229.618 763.176 251.101C749.906 271.356 734.025 281.709 706.247 290.461C680.982 298.421 664.925 312.282 636.909 294.586C608.894 276.89 592.657 239.791 598.01 221.494C603.362 203.197 629.596 206.732 640.707 191.974C649.228 180.656 642.587 170.754 652.637 160.134C680.902 130.264 733.453 161.544 767.751 190.643Z" stroke="#8C3426"/>
<path d="M250.369 208.688L273.338 287.622M273.338 287.622L302.049 169.221M273.338 287.622L342.245 225.602" stroke="#8C3426"/>
<path d="M-31 955.748C-31 955.748 152.751 689.344 210.173 621.686C267.595 554.028 428.377 418.712 428.377 418.712L709.746 211.51" stroke="#8C3426"/>
<path d="M-25.2559 955.746C117.787 710.869 177.325 559.793 273.339 287.623" stroke="#8C3426"/>
<path d="M129.905 482.14C142.551 547.434 129.905 651.285 129.905 651.285C129.905 651.285 89.4381 549.571 81.021 482.14C74.4566 429.552 81.021 346.824 81.021 346.824C81.021 346.824 119.384 427.815 129.905 482.14Z" stroke="#8C3426"/>
<path d="M431.523 358.566C406.605 413.374 339.596 490.178 339.596 490.178C339.596 490.178 361.059 398.225 390.672 343.092C413.767 300.095 464.213 237.802 464.213 237.802C464.213 237.802 452.255 312.965 431.523 358.566Z" stroke="#8C3426"/>
<path d="M635.096 224.193L623.611 270.708L686.776 262.251" stroke="#8C3426"/>
<path d="M281.731 693.875C388.53 653.019 575.642 633.758 575.642 633.758C575.642 633.758 420.204 726.391 307.466 762.104C219.542 789.957 72.3372 810.197 72.3372 810.197C72.3372 810.197 192.873 727.868 281.731 693.875Z" stroke="#8C3426"/>
<path d="M436.018 477.192C502.541 460.702 605.978 481.804 605.978 481.804C605.978 481.804 500.848 537.498 432.484 547.82C379.167 555.871 296.516 544.13 296.516 544.13C296.516 544.13 380.67 490.912 436.018 477.192Z" stroke="#8C3426"/>
<path d="M313.533 541.357C389.043 512.393 426.768 503.124 485.8 499.07" stroke="#8C3426"/>
<path d="M101.07 795.058C202.677 749.612 258.842 724.129 439.861 672.428" stroke="#8C3426"/>
<path d="M1734.98 996.328C1734.98 996.328 1685.52 923.515 1640.66 869.831C1595.8 816.146 1470.2 708.778 1470.2 708.778L1250.41 544.369" stroke="#8C3426"/>
<path d="M1443.84 644.985C1463.53 688.724 1516.48 750.016 1516.48 750.016C1516.48 750.016 1499.52 676.635 1476.12 632.637C1457.87 598.324 1418.01 548.612 1418.01 548.612C1418.01 548.612 1427.45 608.594 1443.84 644.985Z" stroke="#8C3426"/>
<path d="M1580.38 773.179C1598.29 817.546 1648.71 880.567 1648.71 880.567C1648.71 880.567 1634.74 806.669 1613.14 761.918C1596.3 727.018 1558.48 676.008 1558.48 676.008C1558.48 676.008 1565.49 736.265 1580.38 773.179Z" stroke="#8C3426"/>
<path d="M1293.63 525.801C1312.52 569.847 1366.27 630.832 1366.27 630.832C1366.27 630.832 1351.88 556.467 1329.01 512.265C1311.18 477.792 1270.9 428.24 1270.9 428.24C1270.9 428.24 1277.91 489.154 1293.63 525.801Z" stroke="#8C3426"/>
<path d="M1546.42 823.454C1494.17 803.365 1402.71 793.771 1402.71 793.771C1402.71 793.771 1478.81 839.242 1533.95 856.82C1576.96 870.53 1648.92 880.567 1648.92 880.567C1648.92 880.567 1589.89 840.169 1546.42 823.454Z" stroke="#8C3426"/>
<path d="M1413.67 692.488C1361.42 672.398 1269.97 662.804 1269.97 662.804C1269.97 662.804 1346.07 708.275 1401.21 725.853C1444.22 739.563 1516.17 749.6 1516.17 749.6C1516.17 749.6 1457.14 709.203 1413.67 692.488Z" stroke="#8C3426"/>
<path d="M1264.18 574.38C1211.93 554.29 1120.48 544.696 1120.48 544.696C1120.48 544.696 1196.58 590.167 1251.72 607.746C1294.72 621.455 1366.68 631.493 1366.68 631.493C1366.68 631.493 1307.65 591.095 1264.18 574.38Z" stroke="#8C3426"/>
<rect width="1735" height="1121" fill="white" fill-opacity="0.8"/>
</g>
<defs>
<clipPath id="clip0_538_45">
<rect width="1728" height="1117" fill="white"/>
</clipPath>
</defs>
</svg>
