<svg xmlns="http://www.w3.org/2000/svg" viewBox="0 0 1000 1324" xmlns:xlink="http://www.w3.org/1999/xlink"><defs><path id="a" d="M477.42 304.2c27.24-32.2 43.66-73.8 43.66-119.26C521.08 82.8 438.14 0 335.84 0 233.54 0 150.6 82.8 150.6 184.94c0 50.1 19.95 95.55 52.35 128.85l-26.78.9c-8.82.3-15.73 7.7-15.43 16.5l1.15 32.7c.3 8.8 7.7 15.7 16.5 15.4l313.9-11c8.8-.3 15.7-7.7 15.4-16.6l-1.2-32.7c-.3-8.9-7.7-15.8-16.6-15.5l-12.7.4z"/><mask id="z" width="370.48" height="379.25" x="0" y="0" fill="#fff"><use xlink:href="#a"/></mask><path id="b" d="M26.93 97.92c-1.3.53-2.2 1.8-2.2 3.3v.24c0 1.95 1.57 3.32 3.5 3.04l25-3.58c1.97-.28 3.53-1.74 3.53-3.26v2.76c0-.92-.98-2.1-2.36-2.56.43-14.2 26.93-23.47 26.93-52.9C81.33 20.4 67.57 0 40.67 0S0 20.4 0 44.97c0 27.1 22.5 37.1 26.37 49.62.34 1 .53 2.2.56 3.3zm20.8 20.68c-1.33.87-3.7 1.57-5.28 1.57h-3.4c-1.6 0-4.14-.26-5.7-.6l-3.52-.76c-1.56-.3-1.55-.7.03-1l21.77-3.2c1.57-.2 1.76.3.44 1.2l-4.35 2.9zm-23-5.33c0-1.52 1.5-2.98 3.4-3.24l25.23-3.62c1.88-.2 3.4 1.1 3.4 2.3V106c0 1.52-1.52 2.98-3.4 3.24l-25.24 3.6c-1.88.28-3.4-1.04-3.4-2.26v2.77zm0 3.9c0-1.54 1.5-3 3.4-3.26l25.23-3.6c1.88-.2 3.4 1.1 3.4 2.3v-2.7c0 1.6-1.52 3-3.4 3.3l-25.24 3.6c-1.88.3-3.4-1-3.4-2.2v2.8zm0-8.03c0-1.52 1.5-2.98 3.4-3.24l25.23-3.62c1.88-.27 3.4 1.05 3.4 2.27v-2.76c0 1.5-1.52 2.9-3.4 3.2l-25.24 3.6c-1.88.2-3.4-1.1-3.4-2.3v2.7z"/><mask id="A" width="87.33" height="126.17" x="-3" y="-3"><path fill="#fff" d="M-3-3h87.33v126.17H-3z"/><use xlink:href="#b"/></mask><path id="B" d="M0 .38h34.22v45.2H0z"/><path id="c" d="M387.05 128.14v-1.32c0-13.73-9.1-25.34-21.6-29.1.3-1.7.47-3.46.47-5.25v-1.32c0-15.47-11.56-28.24-26.52-30.14-1.22-15.6-14.3-27.9-30.3-27.9-1.22 0-2.43.1-3.63.2-4.57-11-15.42-18.7-28.06-18.7-4.5 0-8.9 1-12.8 2.9-5.1-9.6-15.2-16.1-26.8-16.1-6.5 0-12.6 2.1-17.6 5.7-5.3-4.4-12-7-19.4-7-9.3 0-17.7 4.3-23.3 10.9-4.9-3.5-11-5.6-17.6-5.6-11.8 0-22.1 6.8-27.1 16.7-3.5-1.3-7.2-2.1-11.2-2.1-13.1 0-24.2 8.3-28.5 19.9-14.1 1-25.5 11.6-27.8 25.2-13.9 1.6-24.9 12.6-26.6 26.5-10.3 4.9-17.4 15.3-17.4 27.5l.1 1.3c-8 5.5-13.2 14.7-13.2 25.1 0 6 1.8 11.6 4.7 16.3C5 167.1 0 176.1 0 186.2c0 8.05 3.13 15.36 8.23 20.8-.2 1.4-.3 2.84-.3 4.3 0 14 9.45 25.77 22.32 29.3 5.2 9.3 15.13 15.6 26.55 15.6h1.32c5.82 0 11.25-1.7 15.8-4.64 5.47 5.4 12.94 8.7 21.2 8.7h1.3c7.55 0 14.4-2.9 19.58-7.6 5.35 4.7 12.37 7.58 20.06 7.58h1.32c1.46 0 2.9-.1 4.3-.34 5.43 5.1 12.75 8.25 20.8 8.25h1.32c3.22 0 6.3-.54 9.2-1.5 12.35 4.5 23.32 7.2 29.54 7.2 6.47 0 18.04-2.9 30.97-7.73 3.4 1.3 7.1 2 10.9 2h1.3c8.5 0 16.2-3.65 21.5-9.47 3.9 1.87 8.3 2.9 12.9 2.9h1.3c7.9 0 15.1-3.16 20.3-8.27 5.3 4.34 12 6.95 19.4 6.95h1.4c9.4 0 17.7-4.44 23-11.32 4.2 2.2 9 3.4 14 3.4h1.4c16.1 0 29.1-13 29.1-29V222c0-1.1 0-2.16-.2-3.23 10.9-4.2 18.7-14.77 18.7-27.15v-1.35c0-7.03-2.4-13.5-6.4-18.66 1.6-3.6 2.5-7.5 2.5-11.7v-1.3c0-12.1-7-22.5-17.3-27.4.1-.9.2-1.9.2-2.9z"/><mask id="D" width="414.19" height="279.88" x="-3" y="-3"><path fill="#fff" d="M-3-3h414.2v279.88H-3z"/><use xlink:href="#c"/></mask><ellipse id="d" cx="11.89" cy="11.89" rx="11.89" ry="11.89"/><mask id="E" width="23.78" height="23.78" x="0" y="0" fill="#fff"><use xlink:href="#d"/></mask><ellipse id="e" cx="11.89" cy="11.89" rx="11.89" ry="11.89"/><mask id="F" width="23.78" height="23.78" x="0" y="0" fill="#fff"><use xlink:href="#e"/></mask><rect id="f" width="81.9" height="59.45" rx="10"/><mask id="G" width="81.9" height="59.45" x="0" y="0" fill="#fff"><use xlink:href="#f"/></mask><rect id="g" width="81.9" height="59.45" x="113.61" rx="10"/><mask id="H" width="81.9" height="59.45" x="0" y="0" fill="#fff"><use xlink:href="#g"/></mask><rect id="h" width="81.9" height="59.45" x="2.64" y="2.64" rx="10"/><mask id="I" width="81.9" height="59.45" x="0" y="0" fill="#fff"><use xlink:href="#h"/></mask><rect id="i" width="81.9" height="59.45" x="116.25" y="2.64" rx="10"/><mask id="J" width="81.9" height="59.45" x="0" y="0" fill="#fff"><use xlink:href="#i"/></mask><path id="j" d="M145.97 251.9c69.67 0 126.16-56.4 126.16-125.95C272.13 56.4 215.63 0 145.97 0 76.3 0 19.82 56.4 19.82 125.95c0 69.56 56.48 125.95 126.15 125.95z"/><mask id="K" width="252.31" height="251.9" x="0" y="0" fill="#fff"><use xlink:href="#j"/></mask><path id="k" d="M176.9 251.9c69.68 0 126.16-56.4 126.16-125.95C303.06 56.4 246.58 0 176.9 0 107.24 0 50.76 56.4 50.76 125.95c0 69.56 56.48 125.95 126.16 125.95z"/><mask id="L" width="252.31" height="251.9" x="0" y="0" fill="#fff"><use xlink:href="#k"/></mask><path id="l" d="M284.57 46.83V34.36c0-1.9-1.54-3.43-3.43-3.43H26.44c-1.9 0-3.43 1.54-3.43 3.43v172.8c0 1.9 1.6 3.43 3.5 3.43h254.7c1.9 0 3.5-1.6 3.5-3.5V46.8z"/><mask id="M" width="261.56" height="179.66" x="0" y="0" fill="#fff"><use xlink:href="#l"/></mask><path id="m" d="M291.17 42.25V29.23c0-1.98-1.6-3.58-3.6-3.58H20c-1.98 0-3.6 1.6-3.6 3.58v180.43c0 1.97 1.62 3.57 3.6 3.57h267.58c1.98 0 3.6-1.6 3.6-3.57V42.26z"/><mask id="N" width="274.77" height="187.58" x="0" y="0" fill="#fff"><use xlink:href="#m"/></mask><path id="n" d="M291.28 17.7V3.8c0-2.1-1.7-3.8-3.8-3.8H3.8C1.7 0 0 1.7 0 3.8v192.37c0 2.1 1.7 3.82 3.8 3.82h283.67c2.1 0 3.8-1.8 3.8-3.9V17.7z"/><mask id="O" width="291.28" height="199.99" x="0" y="0" fill="#fff"><use xlink:href="#n"/></mask><path id="o" d="M282.86 38.36c0-1.66 1.34-3 3-3h10.34c1.66 0 3 1.34 3 3v135.46c0 1.66-.4 4.3-.9 5.87 0 0-5.64 18.2-7.27 18.2s-7.27-18.3-7.27-18.3c-.5-1.6-.9-4.2-.9-5.9V38.3z"/><mask id="P" width="16.33" height="162.61" x="0" y="0" fill="#fff"><use xlink:href="#o"/></mask><path id="p" d="M165.8 251.9c69.66 0 126.14-56.4 126.14-125.95C291.94 56.4 235.46 0 165.8 0 96.1 0 39.62 56.4 39.62 125.95c0 69.56 56.48 125.95 126.16 125.95z"/><mask id="Q" width="252.31" height="251.9" x="0" y="0" fill="#fff"><use xlink:href="#p"/></mask><path id="q" d="M318.36 44.92V31.44c0-2.04-1.78-3.7-3.97-3.7H18.5c-2.2 0-3.97 1.66-3.97 3.7v186.8c0 2.03 1.78 3.7 3.98 3.7h295.9c2.2 0 4-1.67 4-3.7V44.9z"/><mask id="R" width="303.83" height="194.19" x="0" y="0" fill="#fff"><use xlink:href="#q"/></mask><path id="r" d="M312.37 15.95V3.45c0-1.9-1.83-3.45-4.1-3.45H4.1C1.82 0 0 1.54 0 3.44v173.38c0 1.9 1.83 3.43 4.1 3.43h304.18c2.26 0 4.1-1.54 4.1-3.43V15.95z"/><mask id="S" width="312.37" height="180.25" x="0" y="0" fill="#fff"><use xlink:href="#r"/></mask><path id="s" d="M3.2 79.6c-1.83-1.22-1.52-2.2.7-2.2h303.86c2.2 0 2.52.98.67 2.2 0 0-142.26 94.82-145.5 97.3-3.27 2-10.5 2.5-14.2 0L3.23 79.6z"/><mask id="T" width="310.26" height="105.2" x="-2" y="-2"><path fill="#fff" d="M.7 75.4h310.26v105.2H.7z"/><use xlink:href="#s"/></mask><path id="t" d="M3.2 4.6c-1.82-1.23-1.5-2.22.7-2.22h303.87c2.2 0 2.52 1 .68 2.24 0 0-140.85 94.8-144.1 97.28-3.27 2-11.9 2.5-15.6 0L3.2 4.6z"/><mask id="U" width="310.27" height="105.2" x="-2" y="-2"><path fill="#fff" d="M.7.38H311v105.2H.7z"/><use xlink:href="#t"/></mask><path id="u" d="M145.48 119.52c3.08 2.67 1.22 15.76 5.15 16.17 3.93.4 3.95-12.8 7.13-12.7 2.65.1.76 5.4 3.38 5.7 2.63.2 3.8-7.6 5.1-8.4 6.1-3.4 10.2-9.9 10.2-17.4 0-11-8.86-19.9-19.8-19.9-10.94 0-19.82 8.9-19.82 19.8 0 6.8 3.28 13.2 8.66 16.3z"/><mask id="V" width="41.63" height="54.37" x="-1" y="-1"><path fill="#fff" d="M135.82 82.33h41.63v54.37h-41.63z"/><use xlink:href="#u"/></mask><path id="v" d="M203.74 369.88c102.3 0 185.24-82.8 185.24-184.94S306.04 0 203.74 0C101.44 0 18.5 82.8 18.5 184.94s82.93 184.94 185.24 184.94z"/><mask id="W" width="370.48" height="369.88" x="0" y="0" fill="#fff"><use xlink:href="#v"/></mask><path id="w" d="M387.05 128.14v-1.32c0-13.73-9.1-25.34-21.6-29.1.3-1.7.47-3.46.47-5.25v-1.32c0-15.47-11.56-28.24-26.52-30.14-1.22-15.6-14.3-27.9-30.3-27.9-1.22 0-2.43.1-3.63.2-4.57-11-15.42-18.7-28.06-18.7-4.5 0-8.9 1-12.8 2.9-5.1-9.6-15.2-16.1-26.8-16.1-6.5 0-12.6 2.1-17.6 5.7-5.3-4.4-12-7-19.4-7-9.3 0-17.7 4.3-23.3 10.9-4.9-3.5-11-5.6-17.6-5.6-11.8 0-22.1 6.8-27.1 16.7-3.5-1.3-7.2-2.1-11.2-2.1-13.1 0-24.2 8.3-28.5 19.9-14.1 1-25.5 11.6-27.8 25.2-13.9 1.6-24.9 12.6-26.6 26.5-10.3 4.9-17.4 15.3-17.4 27.5l.1 1.3c-8 5.5-13.2 14.7-13.2 25.1 0 6 1.8 11.6 4.7 16.3C5 167.1 0 176.1 0 186.2c0 8.05 3.13 15.36 8.23 20.8-.2 1.4-.3 2.84-.3 4.3 0 14 9.45 25.77 22.32 29.3 5.2 9.3 15.13 15.6 26.55 15.6h1.32c5.82 0 11.25-1.7 15.8-4.64 5.47 5.4 12.94 8.7 21.2 8.7h1.3c7.55 0 14.4-2.9 19.58-7.6 5.35 4.7 12.37 7.58 20.06 7.58h1.32c1.46 0 2.9-.1 4.3-.34 5.43 5.1 12.75 8.25 20.8 8.25h1.32c3.22 0 6.3-.54 9.2-1.5 12.35 4.5 23.32 7.2 29.54 7.2 6.47 0 18.04-2.9 30.97-7.73 3.4 1.3 7.1 2 10.9 2h1.3c8.5 0 16.2-3.65 21.5-9.47 3.9 1.87 8.3 2.9 12.9 2.9h1.3c7.9 0 15.1-3.16 20.3-8.27 5.3 4.34 12 6.95 19.4 6.95h1.4c9.4 0 17.7-4.44 23-11.32 4.2 2.2 9 3.4 14 3.4h1.4c16.1 0 29.1-13 29.1-29V222c0-1.1 0-2.16-.2-3.23 10.9-4.2 18.7-14.77 18.7-27.15v-1.35c0-7.03-2.4-13.5-6.4-18.66 1.6-3.6 2.5-7.5 2.5-11.7v-1.3c0-12.1-7-22.5-17.3-27.4.1-.9.2-1.9.2-2.9z"/><mask id="X" width="414.19" height="279.88" x="-3" y="-3"><path fill="#fff" d="M-3-3h414.2v279.88H-3z"/><use xlink:href="#w"/></mask><ellipse id="x" cx="11.89" cy="11.89" rx="11.89" ry="11.89"/><mask id="Y" width="23.78" height="23.78" x="0" y="0" fill="#fff"><use xlink:href="#x"/></mask><ellipse id="y" cx="11.89" cy="11.89" rx="11.89" ry="11.89"/><mask id="Z" width="23.78" height="23.78" x="0" y="0" fill="#fff"><use xlink:href="#y"/></mask></defs><g fill="none" fill-rule="evenodd"><g transform="translate(147.952 943.708)"><use fill="#640035" stroke="#FFF4E8" stroke-width="6" mask="url(#z)" xlink:href="#a"/><path fill="#FFF4E8" d="M509.64 148.73l-19.25 2.9 2.2-19.34-18.8-5.2 9.9-16.8-15-12.4 15.8-11.3-8.8-17.4 19.1-3.9-.9-19.5 19 4.3 7.2-18.1 15.6 11.6 14-13.6 9.5 17 18.2-6.9 1.8 19.4 19.4 1.1-6.2 18.4 17.3 8.9-13.2 14.3 12.1 15.2-17.9 7.7 4.9 18.8-19.5-.2-3.2 19.2-17.7-8.1-10.7 16.2-12.9-14.6-16.4 10.5-5.9-18.6"/><g transform="rotate(20 134.845 1503.624)"><use fill="#D7CED5" xlink:href="#b"/><use stroke="#FFF4E8" stroke-width="6" mask="url(#A)" xlink:href="#b"/></g><path fill="#FFF" d="M539.04 153.43c1.15-2.28 2.97-4.26 5.5-6.15 1.76-1.33 3.8-2.57 6.72-4.16.4-.2 5.98-3.18 7.68-4.13 11.8-6.6 18.8-13.5 22.98-25 8.78-24.1 1-45.8-21.86-54.1-22.86-8.3-42.73 3.2-51.5 27.3-4.2 11.5-3.22 21.2 1.58 33.8.7 1.8 3.06 7.6 3.23 8.1 1.2 3.1 1.98 5.3 2.48 7.5.87 3.7.34 8.2.34 8.2-1.8.2 22.6 8.8 22.8 8.3z"/><path stroke="#DDDCC5" stroke-width="3" d="M526.47 107.55c11.12 4.05 8.16 6.67 11.1 4.83 2.97-1.85 3.76-2 3.94.3.2 2.3.4 2.84 4.1 2.6 3.7-.24 2.4-.04 10 2.75"/><g transform="rotate(20 -21.92 1545.58)"><mask id="C" fill="#fff"><use xlink:href="#B"/></mask><g fill="#DDDCC5" transform="translate(0 4.357)" mask="url(#C)"><rect width="1.4" height="46.16" x="24.92" y="-1.15" transform="rotate(20 25.62 21.925)" rx="4"/><rect width="1.4" height="46.16" x="7.83" y="-1.15" transform="rotate(160 8.53 21.925)" rx="4"/></g></g><path fill="#FFF4E8" d="M237.68 88.14c.14 19.52-11.82 37.54-31.84 53.22-14.34 11.22-33.86 21.15-39.6 21.55-5.73.4-26.45-6.7-42.2-15.8-23.14-13.4-37.82-30.6-39.26-51.2l-.1-1.5-.08-1C83.03 71 99.93 51.5 122.35 50c11-.76 23.48 2.8 33.5 9.44 1.2.8 2.35 1.64 3.45 2.5.98-1 2-2 3.07-2.94 9-8 20.85-13.24 31.85-14 22.42-1.57 41.87 15.35 43.44 37.8.13 1.84.13 3.67.02 5.5z"/><path fill="#FFF4E8" d="M155.1 104.34c7.34 16.18 4.07 35.58-6.76 56-7.75 14.62-20.28 30.07-24.93 32.55-4.6 2.4-24.4 4.2-40.9 2.4-24.1-2.6-42.7-11.4-51.5-28.1l-.6-1.2-.4-.8c-9.6-18.1-2.7-40.6 15.4-50.2 10.5-5.6 23.7-6.7 35-3.8 3.9-11.1 12.2-21.3 22.7-26.9 18.1-9.7 40.6-2.8 50.2 15.3.8 1.5 1.5 3 2.1 4.5z"/><path fill="#D7CED5" d="M153.1 105.2c16.24 35.7-25.3 82.9-30.7 85.78-5.5 2.93-70.42 11.25-89.53-24.7l-.63-1.2-.45-.8c-9.1-17.06-2.6-38.23 14.4-47.28 10-5.34 23.8-6.52 35.3-3.1 3.6-11.45 12.3-22.23 22.3-27.57 17-9.05 38.2-2.58 47.2 14.47.7 1.44 1.4 2.9 1.9 4.4z"/><g transform="translate(132.1 42.272)"><use fill="#FFF5E8" xlink:href="#c"/><use stroke="#FFF4E8" stroke-width="6" mask="url(#D)" xlink:href="#c"/></g><g transform="translate(223.25 62.087)"><circle cx="30.38" cy="30.38" r="30.38" fill="#FFF5E8"/><circle cx="31.7" cy="31.7" r="29.06" fill="#685A4F"/></g><g transform="translate(339.498 43.593)"><ellipse cx="30.38" cy="30.38" fill="#FFF5E8" rx="30.38" ry="30.38"/><ellipse cx="31.7" cy="31.7" fill="#685A4F" rx="29.06" ry="29.06"/></g><g transform="translate(302.51 42.272)"><ellipse cx="30.38" cy="30.38" fill="#FFF5E8" rx="30.38" ry="30.38"/><ellipse cx="31.7" cy="31.7" fill="#685A4F" rx="29.06" ry="29.06"/></g><g transform="translate(261.56 47.556)"><ellipse cx="30.38" cy="30.38" fill="#FFF5E8" rx="30.38" ry="30.38"/><ellipse cx="31.7" cy="31.7" fill="#685A4F" rx="29.06" ry="29.06"/></g><g transform="translate(437.252 103.038)"><ellipse cx="30.38" cy="30.38" fill="#FFF5E8" rx="30.38" ry="30.38"/><ellipse cx="31.7" cy="31.7" fill="#685A4F" rx="29.06" ry="29.06"/></g><g transform="translate(410.832 75.297)"><ellipse cx="30.38" cy="30.38" fill="#FFF5E8" rx="30.38" ry="30.38"/><ellipse cx="31.7" cy="31.7" fill="#685A4F" rx="29.06" ry="29.06"/></g><g transform="translate(379.128 56.803)"><ellipse cx="30.38" cy="30.38" fill="#FFF5E8" rx="30.38" ry="30.38"/><ellipse cx="31.7" cy="31.7" fill="#685A4F" rx="29.06" ry="29.06"/></g><g transform="translate(437.252 203.435)"><circle cx="30.38" cy="30.38" r="30.38" fill="#FFF5E8"/><circle cx="31.7" cy="31.7" r="29.06" fill="#685A4F"/></g><g transform="translate(475.56 170.41)"><ellipse cx="30.38" cy="30.38" fill="#FFF5E8" rx="30.38" ry="30.38"/><ellipse cx="31.7" cy="31.7" fill="#685A4F" rx="29.06" ry="29.06"/></g><g transform="translate(458.388 138.705)"><ellipse cx="30.38" cy="30.38" fill="#FFF5E8" rx="30.38" ry="30.38"/><ellipse cx="31.7" cy="31.7" fill="#685A4F" rx="29.06" ry="29.06"/></g><g transform="translate(479.524 202.114)"><circle cx="30.38" cy="30.38" r="30.38" fill="#FFF5E8"/><circle cx="31.7" cy="31.7" r="29.06" fill="#685A4F"/></g><g transform="translate(422.72 241.744)"><circle cx="30.38" cy="30.38" r="30.38" fill="#FFF5E8"/><circle cx="31.7" cy="31.7" r="29.06" fill="#685A4F"/></g><g transform="translate(381.77 243.065)"><circle cx="30.38" cy="30.38" r="30.38" fill="#FFF5E8"/><circle cx="31.7" cy="31.7" r="29.06" fill="#685A4F"/></g><g transform="translate(346.103 249.67)"><circle cx="30.38" cy="30.38" r="30.38" fill="#FFF5E8"/><circle cx="31.7" cy="31.7" r="29.06" fill="#685A4F"/></g><g transform="translate(264.2 249.67)"><ellipse cx="30.38" cy="30.38" fill="#FFF5E8" rx="30.38" ry="30.38"/><ellipse cx="31.7" cy="31.7" fill="#685A4F" rx="29.06" ry="29.06"/></g><g transform="translate(461.03 233.818)"><ellipse cx="30.38" cy="30.38" fill="#FFF5E8" rx="30.38" ry="30.38"/><ellipse cx="31.7" cy="31.7" fill="#685A4F" rx="29.06" ry="29.06"/></g><g transform="translate(425.363 235.14)"><ellipse cx="30.38" cy="30.38" fill="#FFF5E8" rx="30.38" ry="30.38"/><ellipse cx="31.7" cy="31.7" fill="#685A4F" rx="29.06" ry="29.06"/></g><g transform="translate(132.1 198.15)"><ellipse cx="30.38" cy="30.38" fill="#FFF5E8" rx="30.38" ry="30.38"/><ellipse cx="31.7" cy="31.7" fill="#685A4F" rx="29.06" ry="29.06"/></g><g transform="translate(140.026 157.2)"><ellipse cx="30.38" cy="30.38" fill="#FFF5E8" rx="30.38" ry="30.38"/><ellipse cx="31.7" cy="31.7" fill="#685A4F" rx="29.06" ry="29.06"/></g><g transform="translate(170.41 107)"><ellipse cx="30.38" cy="30.38" fill="#FFF5E8" rx="30.38" ry="30.38"/><ellipse cx="31.7" cy="31.7" fill="#685A4F" rx="29.06" ry="29.06"/></g><g transform="translate(196.83 81.902)"><ellipse cx="30.38" cy="30.38" fill="#FFF5E8" rx="30.38" ry="30.38"/><ellipse cx="31.7" cy="31.7" fill="#685A4F" rx="29.06" ry="29.06"/></g><g transform="translate(153.236 130.78)"><ellipse cx="30.38" cy="30.38" fill="#FFF5E8" rx="30.38" ry="30.38"/><ellipse cx="31.7" cy="31.7" fill="#685A4F" rx="29.06" ry="29.06"/></g><g transform="translate(179.657 117.57)"><ellipse cx="30.38" cy="30.38" fill="#FFF5E8" rx="30.38" ry="30.38"/><ellipse cx="31.7" cy="31.7" fill="#685A4F" rx="29.06" ry="29.06"/></g><g transform="translate(140.026 223.25)"><ellipse cx="30.38" cy="30.38" fill="#FFF5E8" rx="30.38" ry="30.38"/><path fill="#685A4F" d="M31.7 60.77c16.05 0 29.07-13.02 29.07-29.07S47.75 2.64 31.7 2.64 2.64 15.64 2.64 31.7c0 16.05 13 29.07 29.06 29.07z"/></g><g transform="translate(153.236 183.62)"><ellipse cx="30.38" cy="30.38" fill="#FFF5E8" rx="30.38" ry="30.38"/><ellipse cx="31.7" cy="31.7" fill="#685A4F" rx="29.06" ry="29.06"/></g><g transform="translate(166.446 210.04)"><ellipse cx="30.38" cy="30.38" fill="#FFF5E8" rx="30.38" ry="30.38"/><ellipse cx="31.7" cy="31.7" fill="#685A4F" rx="29.06" ry="29.06"/></g><g transform="translate(158.52 237.78)"><ellipse cx="30.38" cy="30.38" fill="#FFF5E8" rx="30.38" ry="30.38"/><ellipse cx="31.7" cy="31.7" fill="#685A4F" rx="29.06" ry="29.06"/></g><g transform="translate(196.83 241.744)"><circle cx="30.38" cy="30.38" r="30.38" fill="#FFF5E8"/><circle cx="31.7" cy="31.7" r="29.06" fill="#685A4F"/></g><g transform="translate(237.78 241.744)"><circle cx="30.38" cy="30.38" r="30.38" fill="#FFF5E8"/><circle cx="31.7" cy="31.7" r="29.06" fill="#685A4F"/></g><g transform="translate(171.73 162.483)"><circle cx="30.38" cy="30.38" r="30.38" fill="#FFF5E8"/><circle cx="31.7" cy="31.7" r="29.06" fill="#685A4F"/></g><path fill="#D7CED5" d="M334.64 313.5c16.9 0 117.36-30.94 117.36-101.7 0-70.8-52.54-141.37-117.36-141.37-64.8 0-117.35 70.58-117.35 141.35 0 70.76 100.4 101.7 117.3 101.7zm0 2.65c-12.26 0-42.9-10.4-66.38-24.7-33.44-20.37-53.6-47.15-53.6-79.66 0-74.7 55.6-144 119.98-144 64.4 0 120 69.3 120 144 0 32.5-20.17 59.2-53.6 79.6-23.48 14.3-54.13 24.7-66.4 24.7z"/><path fill="#FFF4E8" d="M334.64 313.5c16.9 0 117.36-30.94 117.36-101.7 0-70.8-52.54-141.37-117.36-141.37-64.8 0-117.35 70.58-117.35 141.35 0 70.76 100.4 101.7 117.3 101.7z"/><path fill="#640035" d="M317.04 266c0-1.1.9-1.9 1.98-1.8 0 0 11.03 1.13 17.54 1.13 4.45 0 15.48-1.12 15.48-1.12 1.1-.1 2 .7 2 1.8v1.3c0 1.1-.87 2.3-1.92 2.6 0 0-10.56 3.4-15.56 3.4-5.96 0-17.6-3.4-17.6-3.4-1.06-.3-1.92-1.4-1.92-2.5V266z"/><g transform="translate(377.807 192.867)"><use fill="#020815" stroke="#326F03" stroke-width="6" mask="url(#E)" xlink:href="#d"/><circle cx="7.27" cy="9.91" r="3.96" fill="#FFF"/></g><g transform="translate(270.806 192.867)"><use fill="#020815" stroke="#326F02" stroke-width="6" mask="url(#F)" xlink:href="#e"/><circle cx="8.59" cy="9.91" r="3.96" fill="#FFF"/></g><g transform="translate(204.756 105.68)"><ellipse cx="30.38" cy="30.38" fill="#FFF5E8" rx="30.38" ry="30.38"/><ellipse cx="31.7" cy="31.7" fill="#685A4F" rx="29.06" ry="29.06"/></g><g transform="translate(207.398 137.384)"><circle cx="30.38" cy="30.38" r="30.38" fill="#FFF5E8"/><circle cx="31.7" cy="31.7" r="29.06" fill="#685A4F"/></g><g transform="translate(393.66 92.47)"><ellipse cx="30.38" cy="30.38" fill="#FFF5E8" rx="30.38" ry="30.38"/><ellipse cx="31.7" cy="31.7" fill="#685A4F" rx="29.06" ry="29.06"/></g><g transform="translate(406.87 118.89)"><ellipse cx="30.38" cy="30.38" fill="#FFF5E8" rx="30.38" ry="30.38"/><ellipse cx="31.7" cy="31.7" fill="#685A4F" rx="29.06" ry="29.06"/></g><g transform="translate(250.99 110.964)"><ellipse cx="30.38" cy="30.38" fill="#FFF5E8" rx="30.38" ry="30.38"/><ellipse cx="31.7" cy="31.7" fill="#685A4F" rx="29.06" ry="29.06"/></g><g transform="translate(245.707 77.94)"><ellipse cx="30.38" cy="30.38" fill="#FFF5E8" rx="30.38" ry="30.38"/><ellipse cx="31.7" cy="31.7" fill="#685A4F" rx="29.06" ry="29.06"/></g><g transform="translate(284.016 84.544)"><circle cx="30.38" cy="30.38" r="30.38" fill="#FFF5E8"/><circle cx="31.7" cy="31.7" r="29.06" fill="#685A4F"/></g><g transform="translate(286.658 68.692)"><circle cx="30.38" cy="30.38" r="30.38" fill="#FFF5E8"/><circle cx="31.7" cy="31.7" r="29.06" fill="#685A4F"/></g><g transform="translate(323.646 58.124)"><ellipse cx="30.38" cy="30.38" fill="#FFF5E8" rx="30.38" ry="30.38"/><ellipse cx="31.7" cy="31.7" fill="#685A4F" rx="29.06" ry="29.06"/></g><g transform="translate(420.08 145.31)"><ellipse cx="30.38" cy="30.38" fill="#FFF5E8" rx="30.38" ry="30.38"/><ellipse cx="31.7" cy="31.7" fill="#685A4F" rx="29.06" ry="29.06"/></g><g transform="translate(354.03 66.05)"><ellipse cx="30.38" cy="30.38" fill="#FFF5E8" rx="30.38" ry="30.38"/><ellipse cx="31.7" cy="31.7" fill="#685A4F" rx="29.06" ry="29.06"/></g><g transform="translate(338.177 77.94)"><ellipse cx="30.38" cy="30.38" fill="#FFF5E8" rx="30.38" ry="30.38"/><ellipse cx="31.7" cy="31.7" fill="#685A4F" rx="29.06" ry="29.06"/></g><g transform="translate(424.042 184.94)"><ellipse cx="30.38" cy="30.38" fill="#FFF5E8" rx="30.38" ry="30.38"/><ellipse cx="31.7" cy="31.7" fill="#685A4F" rx="29.06" ry="29.06"/></g><path fill="#640035" d="M357.33 261.56c-.17 11.53-9.57 20.82-21.14 20.82s-21-9.3-21.2-20.82c6.8 1.52 13.8 2.33 21.1 2.33 7.2 0 14.3-.9 21.1-2.4z"/><g transform="translate(235.14 169.09)"><use stroke="#FFF" stroke-width="12" mask="url(#G)" xlink:href="#f"/><use stroke="#FFF" stroke-width="12" mask="url(#H)" xlink:href="#g"/><rect width="39.63" height="13.21" x="77.94" y="19.82" fill="#FFF" rx="4"/><use stroke="#020815" stroke-width="12" mask="url(#I)" xlink:href="#h"/><use stroke="#020815" stroke-width="12" mask="url(#J)" xlink:href="#i"/><rect width="39.63" height="13.21" x="80.58" y="22.46" fill="#020815" rx="4"/></g><g transform="translate(207.398 137.384)"><ellipse cx="30.38" cy="30.38" fill="#FFF5E8" rx="30.38" ry="30.38"/><ellipse cx="31.7" cy="31.7" fill="#685A4F" rx="29.06" ry="29.06"/></g><text fill="#FFF" transform="rotate(-2 334.512 342.227)" font-family="FuturaLT-ExtraBold, Futura LT" font-size="42" font-weight="600" letter-spacing="-3.82"><tspan x="176.01" y="357.73">I’M SO HAPPY!</tspan></text></g><g transform="translate(0 492.734)"><use fill="#DDDCC5" stroke="#FFF4E8" stroke-width="6" mask="url(#K)" xlink:href="#j"/><path fill="#FFF" d="M291.64 43.43V29.55c0-2.1-1.7-3.8-3.8-3.8H4.16c-2.1 0-3.8 1.7-3.8 3.8v192.37c0 2.1 1.7 3.8 3.8 3.8h283.66c2.1 0 3.8-1.7 3.8-3.8V43.42"/><path fill="#D7CED5" d="M291.64 43.43V29.55c0-2.1-1.7-3.8-3.8-3.8H4.16c-2.1 0-3.8 1.7-3.8 3.8v192.37c0 2.1 1.7 3.8 3.8 3.8h283.66c2.1 0 3.8-1.7 3.8-3.8V43.42zM4.17 28.55h283.66c.55 0 1 .45 1 1v13.88H3.17v-13.9c0-.54.45-1 1-1zm283.66 194.37H4.17c-.54 0-1-.46-1-1V46.24h285.66v175.68c0 .54-.46 1-1 1z"/><path fill="#D7CED5" d="M10.84 38.66c1.17 0 2.1-.94 2.1-2.1 0-1.17-.93-2.1-2.1-2.1-1.16 0-2.1.93-2.1 2.1 0 1.16.94 2.1 2.1 2.1m8.43 0c1.16 0 2.1-.94 2.1-2.1 0-1.17-.94-2.1-2.1-2.1-1.16 0-2.1.93-2.1 2.1 0 1.16.94 2.1 2.1 2.1m8.43 0c1.16 0 2.1-.94 2.1-2.1 0-1.17-.94-2.1-2.1-2.1-1.17 0-2.1.93-2.1 2.1 0 1.16.93 2.1 2.1 2.1m224.74 137.96l-68.52-85.14c-4.12-5.12-11.9-5.1-16 .02l-34.35 42.9c-3.5 4.4-9.9 5.15-14.33 1.7l-13.88-10.86c-4.04-3.15-9.77-2.85-13.45.7l-51.4 49.73c-6.6 6.4-2.1 17.65 7.2 17.65h196.9c8.6 0 13.4-10 8-16.7M50.3 87.65c0 10.86 8.8 19.67 19.66 19.67s19.67-8.8 19.67-19.67c0-10.86-8.8-19.67-19.67-19.67-10.86 0-19.66 8.8-19.66 19.67"/><path fill="#020815" d="M213.82 114.22H78.2c-.8 0-1.43-.64-1.43-1.42v-7.03c0-.78.64-1.4 1.42-1.4h135.6c.7 0 1.4.62 1.4 1.4v7.03c0 .78-.7 1.42-1.4 1.42"/><path fill="#640035" d="M200.06 123.3H91.96c-.32 0-.57-.26-.57-.58v-3.64c0-.3.2-.57.5-.57H200c.33 0 .58.3.58.6v3.7c0 .3-.25.6-.56.6m-7.93 8.5H99.9c-.32 0-.57-.2-.57-.5v-3.6c0-.3.25-.5.56-.5h92.2c.3 0 .5.3.5.6v3.7c0 .3-.3.6-.6.6m85.5-67.44H267c-.3 0-.55-.24-.55-.55v-3.5c0-.3.28-.56.6-.56h10.53c.33 0 .6.3.6.6V64c0 .3-.25.5-.57.5m-20.2 0h-10.5c-.3 0-.5-.2-.5-.5v-3.5c0-.3.3-.58.6-.58h10.6c.3 0 .6.3.6.6v3.45c0 .3-.3.57-.6.57m-20.2 0h-10.6c-.3 0-.5-.2-.5-.5v-3.5c0-.3.3-.6.6-.6h10.57c.3 0 .53.3.53.6v3.44c0 .3-.3.55-.6.55m-20.2 0h-10.6c-.3 0-.6-.2-.6-.5v-3.5c0-.3.26-.56.57-.56H217c.3 0 .57.27.57.6V64c0 .3-.26.52-.57.52M26.18 62c0 3.8-3.1 6.9-6.9 6.9-3.8 0-6.9-3.1-6.9-6.9 0-3.82 3.1-6.9 6.9-6.9 3.8 0 6.9 3.08 6.9 6.9"/><path fill="#020815" d="M169.24 164.12h-46.47c-.6 0-1.1-.5-1.1-1.1v-12.26c0-.6.5-1.1 1.1-1.1h46.47c.6 0 1.1.5 1.1 1.1v12.26c0 .6-.5 1.1-1.1 1.1"/><path fill="#D7CED5" d="M156.5 158.66h-21c-.3 0-.52-.23-.52-.52v-2.5c0-.28.23-.52.52-.52h20.97c.28 0 .52.24.52.52v2.5c0 .3-.3.52-.6.52"/></g><g transform="translate(309.884 492.734)"><use fill="#DDDCC5" stroke="#FFF4E8" stroke-width="6" mask="url(#L)" xlink:href="#k"/><g transform="translate(0 4.732)"><use fill="#640035" stroke="#D7CED5" stroke-width="4.05" mask="url(#M)" transform="rotate(-15 153.788 120.763)" xlink:href="#l"/><use fill="#D7CED5" stroke="#D7CED5" stroke-width="4.23" mask="url(#N)" transform="rotate(-5 153.788 119.442)" xlink:href="#m"/><g transform="rotate(5 -83.03 207.666)"><use fill="#FFF" stroke="#D7CED5" stroke-width="4.5" mask="url(#O)" xlink:href="#n"/><text fill="#685A4F" font-family="TexasHero, Texas Hero" font-size="45"><tspan x="27.6" y="65.86">Once upon a </tspan> <tspan x="27.6" y="110.86">time, far, </tspan> <tspan x="27.6" y="155.86">far away…</tspan></text></g><use fill="#640035" stroke="#D7CED5" stroke-width="2" mask="url(#P)" transform="rotate(45 291.03 116.658)" xlink:href="#o"/></g></g><g transform="translate(668.428 492.734)"><use fill="#DDDCC5" stroke="#FFF4E8" stroke-width="6" mask="url(#Q)" xlink:href="#p"/><use fill="#D7CED5" stroke="#D7CED5" stroke-width="4.36" mask="url(#R)" transform="rotate(2 166.446 124.835)" xlink:href="#q"/><g transform="rotate(-6 463.638 18.12)"><use fill="#FFF" stroke="#D7CED5" stroke-width="4.5" mask="url(#S)" xlink:href="#r"/><g transform="rotate(-180 155.827 127.994)"><use fill="#FFF" xlink:href="#s"/><use stroke="#D7CED5" stroke-width="4" mask="url(#T)" xlink:href="#s"/></g><use fill="#FFF" xlink:href="#t"/><use stroke="#D7CED5" stroke-width="4" mask="url(#U)" xlink:href="#t"/><use fill="#640035" xlink:href="#u"/><use stroke="#D7CED5" stroke-width="2" mask="url(#V)" xlink:href="#u"/></g></g><path fill="#D7CED5" d="M486.83 890.82V811.1h-4.05v79.72h-12.55c-2 0-3.24 2.16-2.24 3.9l14.5 25.23c1 1.73 3.5 1.73 4.5 0l14.5-25.24c1-1.7-.3-3.8-2.3-3.8h-12.5z"/><path fill="#D7CED5" d="M824.4 851.43c6.06 0 10.52-4.9 10.52-10.94v-29.4h-4v29.4c0 4-2.5 7.2-6.52 7.2H484.8v3.7h339.6z"/><path fill="#D7CED5" d="M153.65 851.43c-6.06 0-10.98-4.9-10.98-10.93v-29.4h3.7v29.4c0 4 3.27 7.24 7.28 7.24h339.6v3.7h-339.6z"/><g transform="translate(809.775 764.567)"><circle cx="23.12" cy="23.96" r="23.12" fill="#D7CED5"/><text fill="#FFF" font-family="FuturaLT-Bold, Futura LT" font-size="30" font-weight="bold"><tspan x="13.21" y="33">3</tspan></text></g><g transform="translate(461.03 764.784)"><circle cx="23.12" cy="23.96" r="23.12" fill="#D7CED5"/><text fill="#FFF" font-family="FuturaLT-Bold, Futura LT" font-size="30" font-weight="bold"><tspan x="13.21" y="33">2</tspan></text></g><g transform="translate(120.21 764.784)"><circle cx="23.12" cy="23.96" r="23.12" fill="#D7CED5"/><text fill="#FFF" font-family="FuturaLT-Bold, Futura LT" font-size="30" font-weight="bold"><tspan x="13.21" y="33">1</tspan></text></g><path fill="#D7CED5" d="M835.03 440.92h12.54c2 0 3.24 2.16 2.24 3.9l-14.5 25.24c-1 1.72-3.5 1.72-4.5 0l-14.6-25.26c-1-1.7.3-3.86 2.3-3.86h12.2V231.6c0-4.02-3.3-7.28-7.2-7.28H673.8v-3.7h149.6c6.02 0 11.7 4.9 11.7 10.97v209.3zm-693.08 0H129.4c-1.98 0-3.23 2.16-2.23 3.9l14.57 25.24c1 1.72 3.5 1.72 4.5 0l14.57-25.25c1-1.7-.2-3.8-2.2-3.8h-12.1V231.6c0-4.02 3.3-7.28 7.3-7.28h136.4v-3.7H153.7c-6.04 0-11.7 4.9-11.7 10.97v209.3z"/><g transform="translate(280.053)"><use fill="#D7CED5" stroke="#FFF4E8" stroke-width="6" mask="url(#W)" xlink:href="#v"/><g transform="translate(0 48.877)"><use fill="#FFF5E8" xlink:href="#w"/><use stroke="#FFF4E8" stroke-width="6" mask="url(#X)" xlink:href="#w"/></g><g transform="translate(91.15 68.692)"><ellipse cx="30.38" cy="30.38" fill="#FFF5E8" rx="30.38" ry="30.38"/><ellipse cx="31.7" cy="31.7" fill="#685A4F" rx="29.06" ry="29.06"/></g><g transform="translate(207.398 50.198)"><ellipse cx="30.38" cy="30.38" fill="#FFF5E8" rx="30.38" ry="30.38"/><ellipse cx="31.7" cy="31.7" fill="#685A4F" rx="29.06" ry="29.06"/></g><g transform="translate(170.41 48.877)"><ellipse cx="30.38" cy="30.38" fill="#FFF5E8" rx="30.38" ry="30.38"/><ellipse cx="31.7" cy="31.7" fill="#685A4F" rx="29.06" ry="29.06"/></g><g transform="translate(129.458 54.16)"><ellipse cx="30.38" cy="30.38" fill="#FFF5E8" rx="30.38" ry="30.38"/><ellipse cx="31.7" cy="31.7" fill="#685A4F" rx="29.06" ry="29.06"/></g><g transform="translate(305.152 109.643)"><ellipse cx="30.38" cy="30.38" fill="#FFF5E8" rx="30.38" ry="30.38"/><ellipse cx="31.7" cy="31.7" fill="#685A4F" rx="29.06" ry="29.06"/></g><g transform="translate(278.732 81.902)"><ellipse cx="30.38" cy="30.38" fill="#FFF5E8" rx="30.38" ry="30.38"/><ellipse cx="31.7" cy="31.7" fill="#685A4F" rx="29.06" ry="29.06"/></g><g transform="translate(247.028 63.408)"><ellipse cx="30.38" cy="30.38" fill="#FFF5E8" rx="30.38" ry="30.38"/><ellipse cx="31.7" cy="31.7" fill="#685A4F" rx="29.06" ry="29.06"/></g><g transform="translate(305.152 210.04)"><ellipse cx="30.38" cy="30.38" fill="#FFF5E8" rx="30.38" ry="30.38"/><ellipse cx="31.7" cy="31.7" fill="#685A4F" rx="29.06" ry="29.06"/></g><g transform="translate(343.46 177.015)"><ellipse cx="30.38" cy="30.38" fill="#FFF5E8" rx="30.38" ry="30.38"/><ellipse cx="31.7" cy="31.7" fill="#685A4F" rx="29.06" ry="29.06"/></g><g transform="translate(326.288 145.31)"><ellipse cx="30.38" cy="30.38" fill="#FFF5E8" rx="30.38" ry="30.38"/><ellipse cx="31.7" cy="31.7" fill="#685A4F" rx="29.06" ry="29.06"/></g><g transform="translate(347.424 208.72)"><ellipse cx="30.38" cy="30.38" fill="#FFF5E8" rx="30.38" ry="30.38"/><ellipse cx="31.7" cy="31.7" fill="#685A4F" rx="29.06" ry="29.06"/></g><g transform="translate(290.62 248.35)"><ellipse cx="30.38" cy="30.38" fill="#FFF5E8" rx="30.38" ry="30.38"/><ellipse cx="31.7" cy="31.7" fill="#685A4F" rx="29.06" ry="29.06"/></g><g transform="translate(249.67 249.67)"><ellipse cx="30.38" cy="30.38" fill="#FFF5E8" rx="30.38" ry="30.38"/><ellipse cx="31.7" cy="31.7" fill="#685A4F" rx="29.06" ry="29.06"/></g><g transform="translate(214.003 256.275)"><ellipse cx="30.38" cy="30.38" fill="#FFF5E8" rx="30.38" ry="30.38"/><ellipse cx="31.7" cy="31.7" fill="#685A4F" rx="29.06" ry="29.06"/></g><g transform="translate(132.1 256.275)"><ellipse cx="30.38" cy="30.38" fill="#FFF5E8" rx="30.38" ry="30.38"/><ellipse cx="31.7" cy="31.7" fill="#685A4F" rx="29.06" ry="29.06"/></g><g transform="translate(328.93 240.423)"><ellipse cx="30.38" cy="30.38" fill="#FFF5E8" rx="30.38" ry="30.38"/><ellipse cx="31.7" cy="31.7" fill="#685A4F" rx="29.06" ry="29.06"/></g><g transform="translate(293.263 241.744)"><ellipse cx="30.38" cy="30.38" fill="#FFF5E8" rx="30.38" ry="30.38"/><ellipse cx="31.7" cy="31.7" fill="#685A4F" rx="29.06" ry="29.06"/></g><g transform="translate(0 204.756)"><ellipse cx="30.38" cy="30.38" fill="#FFF5E8" rx="30.38" ry="30.38"/><ellipse cx="31.7" cy="31.7" fill="#685A4F" rx="29.06" ry="29.06"/></g><g transform="translate(7.926 163.804)"><ellipse cx="30.38" cy="30.38" fill="#FFF5E8" rx="30.38" ry="30.38"/><ellipse cx="31.7" cy="31.7" fill="#685A4F" rx="29.06" ry="29.06"/></g><g transform="translate(38.31 113.606)"><ellipse cx="30.38" cy="30.38" fill="#FFF5E8" rx="30.38" ry="30.38"/><ellipse cx="31.7" cy="31.7" fill="#685A4F" rx="29.06" ry="29.06"/></g><g transform="translate(64.73 88.507)"><ellipse cx="30.38" cy="30.38" fill="#FFF5E8" rx="30.38" ry="30.38"/><ellipse cx="31.7" cy="31.7" fill="#685A4F" rx="29.06" ry="29.06"/></g><g transform="translate(21.136 137.384)"><ellipse cx="30.38" cy="30.38" fill="#FFF5E8" rx="30.38" ry="30.38"/><ellipse cx="31.7" cy="31.7" fill="#685A4F" rx="29.06" ry="29.06"/></g><g transform="translate(47.556 124.174)"><ellipse cx="30.38" cy="30.38" fill="#FFF5E8" rx="30.38" ry="30.38"/><ellipse cx="31.7" cy="31.7" fill="#685A4F" rx="29.06" ry="29.06"/></g><g transform="translate(7.926 229.855)"><ellipse cx="30.38" cy="30.38" fill="#FFF5E8" rx="30.38" ry="30.38"/><path fill="#685A4F" d="M31.7 60.77c16.05 0 29.07-13.02 29.07-29.07S47.75 2.64 31.7 2.64 2.64 15.64 2.64 31.7c0 16.05 13 29.07 29.06 29.07z"/></g><g transform="translate(21.136 190.225)"><ellipse cx="30.38" cy="30.38" fill="#FFF5E8" rx="30.38" ry="30.38"/><ellipse cx="31.7" cy="31.7" fill="#685A4F" rx="29.06" ry="29.06"/></g><g transform="translate(34.346 216.645)"><ellipse cx="30.38" cy="30.38" fill="#FFF5E8" rx="30.38" ry="30.38"/><ellipse cx="31.7" cy="31.7" fill="#685A4F" rx="29.06" ry="29.06"/></g><g transform="translate(26.42 244.386)"><ellipse cx="30.38" cy="30.38" fill="#FFF5E8" rx="30.38" ry="30.38"/><ellipse cx="31.7" cy="31.7" fill="#685A4F" rx="29.06" ry="29.06"/></g><g transform="translate(64.73 248.35)"><circle cx="30.38" cy="30.38" r="30.38" fill="#FFF5E8"/><circle cx="31.7" cy="31.7" r="29.06" fill="#685A4F"/></g><g transform="translate(105.68 248.35)"><ellipse cx="30.38" cy="30.38" fill="#FFF5E8" rx="30.38" ry="30.38"/><ellipse cx="31.7" cy="31.7" fill="#685A4F" rx="29.06" ry="29.06"/></g><g transform="translate(39.63 169.09)"><ellipse cx="30.38" cy="30.38" fill="#FFF5E8" rx="30.38" ry="30.38"/><ellipse cx="31.7" cy="31.7" fill="#685A4F" rx="29.06" ry="29.06"/></g><path fill="#D7CED5" d="M202.54 320.1c16.9 0 117.36-30.94 117.36-101.7 0-70.77-52.54-141.35-117.36-141.35-64.8 0-117.35 70.58-117.35 141.35 0 70.76 100.4 101.7 117.3 101.7zm0 2.66c-12.26 0-42.9-10.42-66.38-24.7-33.44-20.38-53.6-47.15-53.6-79.66 0-74.64 55.6-144 119.98-144 64.4 0 120 69.36 120 144 0 32.5-20.17 59.28-53.6 79.65-23.48 14.3-54.13 24.7-66.4 24.7z"/><path fill="#FFF4E8" d="M202.54 320.1c16.9 0 117.36-30.94 117.36-101.7 0-70.77-52.54-141.35-117.36-141.35-64.8 0-117.35 70.58-117.35 141.35 0 70.76 100.4 101.7 117.3 101.7z"/><path fill="#640035" d="M184.94 272.6c0-1.1.9-1.9 1.98-1.8 0 0 11.03 1.14 17.54 1.14 4.45 0 15.48-1.13 15.48-1.13 1.1-.1 2 .7 2 1.8v1.3c0 1.1-.87 2.3-1.92 2.6 0 0-10.56 3.4-15.56 3.4-5.96 0-17.6-3.4-17.6-3.4-1.06-.3-1.92-1.4-1.92-2.5v-1.3z"/><g transform="translate(245.707 199.472)"><use fill="#020815" stroke="#326F03" stroke-width="6" mask="url(#Y)" xlink:href="#x"/><ellipse cx="7.27" cy="9.91" fill="#FFF" rx="3.96" ry="3.96"/></g><g transform="translate(138.705 199.472)"><use fill="#020815" stroke="#326F02" stroke-width="6" mask="url(#Z)" xlink:href="#y"/><ellipse cx="8.59" cy="9.91" fill="#FFF" rx="3.96" ry="3.96"/></g><g transform="translate(72.655 112.285)"><ellipse cx="30.38" cy="30.38" fill="#FFF5E8" rx="30.38" ry="30.38"/><ellipse cx="31.7" cy="31.7" fill="#685A4F" rx="29.06" ry="29.06"/></g><g transform="translate(75.297 143.99)"><ellipse cx="30.38" cy="30.38" fill="#FFF5E8" rx="30.38" ry="30.38"/><ellipse cx="31.7" cy="31.7" fill="#685A4F" rx="29.06" ry="29.06"/></g><g transform="translate(261.56 99.075)"><ellipse cx="30.38" cy="30.38" fill="#FFF5E8" rx="30.38" ry="30.38"/><ellipse cx="31.7" cy="31.7" fill="#685A4F" rx="29.06" ry="29.06"/></g><g transform="translate(274.77 125.495)"><ellipse cx="30.38" cy="30.38" fill="#FFF5E8" rx="30.38" ry="30.38"/><ellipse cx="31.7" cy="31.7" fill="#685A4F" rx="29.06" ry="29.06"/></g><g transform="translate(118.89 117.57)"><ellipse cx="30.38" cy="30.38" fill="#FFF5E8" rx="30.38" ry="30.38"/><ellipse cx="31.7" cy="31.7" fill="#685A4F" rx="29.06" ry="29.06"/></g><g transform="translate(113.606 84.544)"><ellipse cx="30.38" cy="30.38" fill="#FFF5E8" rx="30.38" ry="30.38"/><ellipse cx="31.7" cy="31.7" fill="#685A4F" rx="29.06" ry="29.06"/></g><g transform="translate(151.915 91.15)"><ellipse cx="30.38" cy="30.38" fill="#FFF5E8" rx="30.38" ry="30.38"/><ellipse cx="31.7" cy="31.7" fill="#685A4F" rx="29.06" ry="29.06"/></g><g transform="translate(154.557 75.297)"><ellipse cx="30.38" cy="30.38" fill="#FFF5E8" rx="30.38" ry="30.38"/><ellipse cx="31.7" cy="31.7" fill="#685A4F" rx="29.06" ry="29.06"/></g><g transform="translate(191.546 64.73)"><ellipse cx="30.38" cy="30.38" fill="#FFF5E8" rx="30.38" ry="30.38"/><ellipse cx="31.7" cy="31.7" fill="#685A4F" rx="29.06" ry="29.06"/></g><g transform="translate(287.98 151.915)"><ellipse cx="30.38" cy="30.38" fill="#FFF5E8" rx="30.38" ry="30.38"/><ellipse cx="31.7" cy="31.7" fill="#685A4F" rx="29.06" ry="29.06"/></g><g transform="translate(221.93 72.655)"><ellipse cx="30.38" cy="30.38" fill="#FFF5E8" rx="30.38" ry="30.38"/><ellipse cx="31.7" cy="31.7" fill="#685A4F" rx="29.06" ry="29.06"/></g><g transform="translate(206.077 84.544)"><ellipse cx="30.38" cy="30.38" fill="#FFF5E8" rx="30.38" ry="30.38"/><ellipse cx="31.7" cy="31.7" fill="#685A4F" rx="29.06" ry="29.06"/></g><g transform="translate(291.942 191.546)"><ellipse cx="30.38" cy="30.38" fill="#FFF5E8" rx="30.38" ry="30.38"/><ellipse cx="31.7" cy="31.7" fill="#685A4F" rx="29.06" ry="29.06"/></g></g><path fill="#D7CED5" d="M486.83 440.36v-83.7h-4.05v83.7h-12.55c-2 0-3.24 2.16-2.24 3.88l14.5 25.25c1 1.7 3.5 1.7 4.5 0l14.5-25.3c1-1.7-.3-3.9-2.3-3.9h-12.5z"/></g></svg>