<svg id="Layer_1" data-name="Layer 1" xmlns="http://www.w3.org/2000/svg" viewBox="0 0 600 600"><defs><style>.cls-1{fill:#fffefa;}</style></defs><title>marisamorby-logo</title><path class="cls-1" d="M537.46,161.35a204,204,0,0,1-48.82,50.32q0.3,4.22.3,12.66a276.53,276.53,0,0,1-11.45,78.2,282.7,282.7,0,0,1-34.8,74.88,294.37,294.37,0,0,1-55.6,63.43q-32.25,27.57-77.75,44T212,501.26q-81.67,0-149.46-43.69a207.8,207.8,0,0,0,23.5,1.21q67.8,0,120.84-41.58a97.54,97.54,0,0,1-91-67.5,123,123,0,0,0,18.38,1.51,100.58,100.58,0,0,0,25.61-3.31,95.75,95.75,0,0,1-55.9-33.6q-22.15-26.67-22.15-61.92v-1.21a96.51,96.51,0,0,0,44,12.36,97.19,97.19,0,0,1-31.64-34.65,97.56,97.56,0,0,1,1.51-95.52,275.77,275.77,0,0,0,88.74,71.87,271.12,271.12,0,0,0,111.95,30,107.88,107.88,0,0,1-2.41-22.3q0-40.38,28.48-68.86t68.86-28.48q42.18,0,71.12,30.74a190.88,190.88,0,0,0,61.78-23.5Q513,157.43,481.41,176.41A193.8,193.8,0,0,0,537.46,161.35Z"/></svg>