<svg id="Layer_1" data-name="Layer 1" xmlns="http://www.w3.org/2000/svg" viewBox="0 0 235.3 39.83"><defs><style>.cls-1,.cls-3{fill:#a3a3a3;}.cls-1{opacity:0.3;isolation:isolate;}.cls-2{fill:#259cc4;}</style></defs><title>jobhero2</title><g id="Page-1"><g id="landing-desktop"><g id="Header"><g id="logo"><ellipse id="Oval" class="cls-1" cx="30.57" cy="38.33" rx="11.6" ry="1.49"/><g id="Group"><path id="Shape" class="cls-2" d="M47.45,19.8a16.72,16.72,0,1,0-32.89.15,16.44,16.44,0,0,0,.93,3.14,16.75,16.75,0,0,0,31.08-.16,16.5,16.5,0,0,0,.89-3.12h0ZM31,29.89A13,13,0,0,1,28.86,4l-2.73,15.5L31,26.29l4.86-6.82L33.12,4A13,13,0,0,1,31,29.89h0Z" transform="translate(-0.17 -0.17)"/><path id="Shape-2" data-name="Shape" class="cls-2" d="M13.54,24.23L8.45,22l1.94,3.7,6.1,2.5a10,10,0,0,1-3-4h0Z" transform="translate(-0.17 -0.17)"/><path id="Shape-3" data-name="Shape" class="cls-2" d="M11.71,21.13l1.07,0.45a21.07,21.07,0,0,1-.61-4.52h0a16.35,16.35,0,0,1,.83-5.2L0.17,6.37,6.78,19l4.92,2.15v0h0Z" transform="translate(-0.17 -0.17)"/><path id="Shape-4" data-name="Shape" class="cls-2" d="M45.38,28.43l6.21-2.55,2-3.77-5.17,2.24a10.23,10.23,0,0,1-3,4.07h0Z" transform="translate(-0.17 -0.17)"/><path id="Shape-5" data-name="Shape" class="cls-2" d="M48.94,11.76a16.64,16.64,0,0,1,.85,5.3h0a21.43,21.43,0,0,1-.62,4.6l1.09-.46v0l5-2.18L62,6.17,48.94,11.76h0Z" transform="translate(-0.17 -0.17)"/></g><path id="Shape-6" data-name="Shape" class="cls-3" d="M86.81,1.81H75.51V6.67h7.56a0.88,0.88,0,0,1,1,1V23.45c0,3.38-1.93,4.65-4,4.65s-4.09-1.18-4.09-4.91V21.92H70.15v1.8c0,6.7,4.92,9.73,9.8,9.73s9.85-2.94,9.85-9.73V4.79c0-2.06-.92-3-3-3h0Z" transform="translate(-0.17 -0.17)"/><path id="Shape-7" data-name="Shape" class="cls-3" d="M104.43,10c-6.81,0-12.27,4.86-12.27,11.7s5.45,11.7,12.27,11.7,12.31-4.82,12.31-11.7S111.29,10,104.43,10h0Zm0,18.67a6.65,6.65,0,0,1-6.64-7,6.67,6.67,0,1,1,13.32,0,6.66,6.66,0,0,1-6.68,7h0Z" transform="translate(-0.17 -0.17)"/><path id="Shape-8" data-name="Shape" class="cls-3" d="M131.38,10a8,8,0,0,0-6.73,3.11h-0.09s0.09-.79.09-1.88V4.79c0-2.06-.92-3-3-3h-5.32V6.54h1.76a0.86,0.86,0,0,1,1,1V32.92h5.28V31.78a11.48,11.48,0,0,0-.09-1.49h0.09A8,8,0,0,0,131,33.45c5.94,0,10.29-4.6,10.29-11.7,0-6.92-3.87-11.7-9.93-11.7h0Zm-1.32,18.71c-3.74,0-5.58-3.42-5.58-6.88,0-5,2.73-7.05,5.63-7.05,3.3,0,5.58,2.76,5.58,7,0,4.43-2.59,6.92-5.63,6.92h0Z" transform="translate(-0.17 -0.17)"/><path id="Shape-9" data-name="Shape" class="cls-2" d="M164.44,4.79V15H150.68V4.79c0-2.06-.88-3-3-3h-5.63V6.67H144a0.88,0.88,0,0,1,1,1V32.92h5.76V19.86h13.76V32.92h5.76V7.64a0.88,0.88,0,0,1,1-1h1.89V1.81h-5.63c-2.07,0-3,.92-3,3h0Z" transform="translate(-0.17 -0.17)"/><path id="Shape-10" data-name="Shape" class="cls-2" d="M184.92,10c-6.73,0-11.39,4.82-11.39,11.7,0,6.35,4.61,11.7,12,11.7a13.65,13.65,0,0,0,9-3.38l-2.33-3.85a10.21,10.21,0,0,1-6.29,2.5,6.44,6.44,0,0,1-6.73-6h15.47s0.13-1.4.13-2.06c0-5.92-3.52-10.6-9.93-10.6h0Zm-5.5,8.81a5.37,5.37,0,0,1,5.5-4.51,4.35,4.35,0,0,1,4.22,4.51h-9.72Z" transform="translate(-0.17 -0.17)"/><path id="Shape-11" data-name="Shape" class="cls-2" d="M211.56,10.35a7.27,7.27,0,0,0-1-.09c-3.43,0-6.11,2.54-7.12,5.74h-0.09a10.06,10.06,0,0,0,.09-1.4V13.29c0-1.88-1-2.72-3-2.72h-5.1V15.3h1.76a0.86,0.86,0,0,1,1,1V32.92h5.54V24.07a13.47,13.47,0,0,1,.48-3.64,6.31,6.31,0,0,1,6.11-4.69,9.87,9.87,0,0,1,1.36.09V10.35h0Z" transform="translate(-0.17 -0.17)"/><path id="Shape-12" data-name="Shape" class="cls-2" d="M223.17,10c-6.81,0-12.26,4.86-12.26,11.7s5.45,11.7,12.26,11.7,12.31-4.82,12.31-11.7S230,10,223.17,10h0Zm0,18.67a6.65,6.65,0,0,1-6.64-7,6.67,6.67,0,1,1,13.32,0,6.66,6.66,0,0,1-6.68,7h0Z" transform="translate(-0.17 -0.17)"/></g></g></g></g></svg>