<?xml version="1.0" encoding="UTF-8" standalone="no"?>
<svg width="236px" height="40px" viewBox="0 0 236 40" version="1.1" xmlns="http://www.w3.org/2000/svg" xmlns:xlink="http://www.w3.org/1999/xlink" xmlns:sketch="http://www.bohemiancoding.com/sketch/ns">
    <!-- Generator: Sketch 3.2.2 (9983) - http://www.bohemiancoding.com/sketch -->
    <title>logo</title>
    <desc>Created with Sketch.</desc>
    <defs></defs>
    <g id="Page-1" stroke="none" stroke-width="1" fill="none" fill-rule="evenodd" sketch:type="MSPage">
        <g id="landing-desktop" sketch:type="MSArtboardGroup" transform="translate(-40.000000, -30.000000)">
            <g id="Header" sketch:type="MSLayerGroup">
                <g id="logo" transform="translate(40.000000, 30.000000)" sketch:type="MSShapeGroup">
                    <ellipse id="Oval" opacity="0.3" fill="#A3A3A3" cx="30.7440162" cy="38.5057143" rx="11.6003077" ry="1.49428571"></ellipse>
                    <g id="Group" fill="#259CC4">
                        <path d="M47.4474656,19.7990476 C47.6204049,18.8390476 47.7102186,17.8514286 47.7102186,16.8428571 C47.7102186,14.8866667 47.3700729,13.007619 46.7451984,11.2619048 C44.437749,4.80666667 38.2453765,0.174285714 30.9876599,0.174285714 C23.6850364,0.174285714 17.4620891,4.86380952 15.188081,11.3809524 C14.5899595,13.092381 14.2641457,14.9314286 14.2641457,16.8428571 C14.2641457,17.9038095 14.3654251,18.9428571 14.5565182,19.9495238 C14.7619433,21.0371429 15.075336,22.0857143 15.4823644,23.087619 C16.5457976,25.7019048 18.256081,27.9895238 20.4163887,29.7495238 C23.2990283,32.1 26.9804372,33.5133333 30.9876599,33.5133333 C35.1362915,33.5133333 38.9361781,31.9980952 41.8627692,29.4961905 C43.9237085,27.7333333 45.5508664,25.4809524 46.5598381,22.9228571 C46.9525344,21.9238095 47.2535061,20.88 47.4474656,19.7990476 L47.4474656,19.7990476 Z M30.9876599,29.8885714 C23.7710283,29.8885714 17.9006478,24.0361905 17.9006478,16.8428571 C17.9006478,10.3742857 22.6502672,4.99047619 28.8560162,3.97238095 L26.1300729,19.4714286 L30.9876599,26.2885714 L35.8442915,19.4714286 L33.1202591,3.97238095 C39.3260081,4.98952381 44.0746721,10.3742857 44.0746721,16.8428571 C44.0746721,24.0361905 38.2042915,29.8885714 30.9876599,29.8885714 L30.9876599,29.8885714 Z" id="Shape"></path>
                        <path d="M13.5351255,24.2314286 L8.45395951,22.0304762 L10.3973765,25.7314286 L16.4970688,28.232381 C15.200502,27.1761905 14.1733765,25.8028571 13.5351255,24.2314286 L13.5351255,24.2314286 Z" id="Shape"></path>
                        <path d="M11.7073198,21.132381 L12.7745749,21.5847619 C12.3551255,19.8114286 12.187919,18.3133333 12.1688097,17.0657143 L12.1688097,17.0571429 C12.0369555,14.6714286 13.0000648,11.8580952 13.0000648,11.8571429 L0.173894737,6.37333333 L6.78380567,18.96 L11.7006316,21.1057143 C11.7044534,21.1228571 11.7073198,21.132381 11.7073198,21.132381 L11.7073198,21.132381 Z" id="Shape"></path>
                        <path d="M45.3779271,28.4333333 L51.5884534,25.8847619 L53.5691336,22.1171429 L48.394332,24.3590476 C47.7436599,25.9590476 46.6983806,27.3580952 45.3779271,28.4333333 L45.3779271,28.4333333 Z" id="Shape"></path>
                        <path d="M48.9399028,11.7571429 C48.9399028,11.7571429 49.9202105,14.6228571 49.7854899,17.0533333 L49.7854899,17.0609524 C49.7654251,18.332381 49.5963077,19.8571429 49.1682591,21.6628571 L50.2555789,21.2028571 C50.2555789,21.2028571 50.2584453,21.1914286 50.2622672,21.1761905 L55.2679514,18.9914286 L61.998251,6.17333333 L48.9399028,11.7571429 L48.9399028,11.7571429 Z" id="Shape"></path>
                    </g>
                    <path d="M86.806915,1.80857143 L75.5075789,1.80857143 L75.5075789,6.67238095 L83.0681781,6.67238095 C83.683498,6.67238095 84.0360648,7.02285714 84.0360648,7.63619048 L84.0360648,23.4514286 C84.0360648,26.827619 82.101247,28.0980952 79.9915789,28.0980952 C77.9258623,28.0980952 75.9040972,26.9152381 75.9040972,23.1914286 L75.9040972,21.92 L70.1455061,21.92 L70.1455061,23.7171429 C70.1455061,30.4219048 75.0680648,33.4447619 79.9476275,33.4447619 C84.8281457,33.4447619 89.7946559,30.5095238 89.7946559,23.7171429 L89.7946559,4.78857143 C89.7946559,2.72857143 88.873587,1.80857143 86.806915,1.80857143 L86.806915,1.80857143 Z" id="Shape" fill="#A3A3A3"></path>
                    <path d="M104.433344,10.0466667 C97.6189636,10.0466667 92.1680324,14.9114286 92.1680324,21.7457143 C92.1680324,28.6266667 97.6189636,33.4447619 104.433344,33.4447619 C111.291676,33.4447619 116.742607,28.6257143 116.742607,21.7457143 C116.742607,14.9114286 111.291676,10.0466667 104.433344,10.0466667 L104.433344,10.0466667 Z M104.433344,28.7133333 C100.828372,28.7133333 97.7957247,25.9085714 97.7957247,21.7457143 C97.7957247,17.6257143 100.828372,14.7790476 104.433344,14.7790476 C108.082267,14.7790476 111.11587,17.6257143 111.11587,21.7457143 C111.11587,25.9085714 108.082267,28.7133333 104.433344,28.7133333 L104.433344,28.7133333 Z" id="Shape" fill="#A3A3A3"></path>
                    <path d="M131.38034,10.0466667 C126.631676,10.0466667 124.652907,13.1571429 124.652907,13.1571429 L124.566915,13.1571429 C124.566915,13.1571429 124.652907,12.3685714 124.652907,11.2733333 L124.652907,4.78857143 C124.652907,2.72857143 123.729927,1.80952381 121.664211,1.80952381 L116.346089,1.80952381 L116.346089,6.54190476 L118.104146,6.54190476 C118.721377,6.54190476 119.072032,6.84761905 119.072032,7.50571429 L119.072032,32.9190476 L124.348113,32.9190476 L124.348113,31.78 C124.348113,30.9057143 124.259255,30.292381 124.259255,30.292381 L124.348113,30.292381 C124.348113,30.292381 126.368923,33.4457143 131.027773,33.4457143 C136.963126,33.4457143 141.315271,28.8457143 141.315271,21.7466667 C141.314316,14.8228571 137.446591,10.0466667 131.38034,10.0466667 L131.38034,10.0466667 Z M130.061798,28.7561905 C126.324016,28.7561905 124.478057,25.3371429 124.478057,21.8752381 C124.478057,16.9247619 127.204,14.8219048 130.104794,14.8219048 C133.403061,14.8219048 135.687579,17.5828571 135.687579,21.8314286 C135.687579,26.2590476 133.094445,28.7561905 130.061798,28.7561905 L130.061798,28.7561905 Z" id="Shape" fill="#A3A3A3"></path>
                    <path d="M164.435628,4.78857143 L164.435628,14.9990476 L150.678834,14.9990476 L150.678834,4.78857143 C150.678834,2.72857143 149.800761,1.80952381 147.689182,1.80952381 L142.062445,1.80952381 L142.062445,6.67333333 L143.953312,6.67333333 C144.570543,6.67333333 144.922154,7.02380952 144.922154,7.63714286 L144.922154,32.9190476 L150.678834,32.9190476 L150.678834,19.8619048 L164.435628,19.8619048 L164.435628,32.9180952 L170.19613,32.9180952 L170.19613,7.63714286 C170.19613,7.02380952 170.548696,6.67333333 171.164016,6.67333333 L173.053927,6.67333333 L173.053927,1.80857143 L167.42719,1.80857143 C165.360518,1.80857143 164.435628,2.72857143 164.435628,4.78857143 L164.435628,4.78857143 Z" id="Shape" fill="#259CC4"></path>
                    <path d="M184.923676,10.0466667 C178.198154,10.0466667 173.538348,14.8666667 173.538348,21.7457143 C173.538348,28.0990476 178.153247,33.4447619 185.582947,33.4447619 C191.165733,33.4447619 194.594899,30.0685714 194.594899,30.0685714 L192.265474,26.2152381 C192.265474,26.2152381 189.581571,28.7133333 185.979466,28.7133333 C182.593296,28.7133333 179.690591,26.6533333 179.252988,22.7104762 L194.725798,22.7104762 C194.725798,22.7104762 194.857652,21.3066667 194.857652,20.6504762 C194.857652,14.7342857 191.340583,10.0466667 184.923676,10.0466667 L184.923676,10.0466667 Z M179.426883,18.8533333 C180.044113,16.0495238 182.065879,14.34 184.923676,14.34 C187.20915,14.34 189.056065,16.1809524 189.143968,18.8533333 L179.426883,18.8533333 L179.426883,18.8533333 Z" id="Shape" fill="#259CC4"></path>
                    <path d="M211.563012,10.3533333 C211.563012,10.3533333 211.035595,10.2666667 210.55213,10.2666667 C207.121053,10.2666667 204.440972,12.8085714 203.431045,16.0057143 L203.342186,16.0057143 C203.342186,16.0057143 203.431045,15.4361905 203.431045,14.6028571 L203.431045,13.2885714 C203.431045,11.4047619 202.419206,10.5714286 200.441393,10.5714286 L195.341117,10.5714286 L195.341117,15.3047619 L197.10013,15.3047619 C197.715449,15.3047619 198.068016,15.6114286 198.068016,16.2685714 L198.068016,32.9180952 L203.60685,32.9180952 L203.60685,24.067619 C203.60685,22.7514286 203.782656,21.527619 204.090316,20.4314286 C205.100243,17.1009524 207.826186,15.7419048 210.200518,15.7419048 C210.991644,15.7419048 211.563968,15.8304762 211.563968,15.8304762 L211.563968,10.3533333 L211.563012,10.3533333 Z" id="Shape" fill="#259CC4"></path>
                    <path d="M223.166186,10.0466667 C216.353717,10.0466667 210.903741,14.9114286 210.903741,21.7457143 C210.903741,28.6266667 216.353717,33.4447619 223.166186,33.4447619 C230.025474,33.4447619 235.476405,28.6257143 235.476405,21.7457143 C235.476405,14.9114286 230.025474,10.0466667 223.166186,10.0466667 L223.166186,10.0466667 Z M223.166186,28.7133333 C219.563126,28.7133333 216.528567,25.9085714 216.528567,21.7457143 C216.528567,17.6257143 219.563126,14.7790476 223.166186,14.7790476 C226.816065,14.7790476 229.848713,17.6257143 229.848713,21.7457143 C229.849668,25.9085714 226.81702,28.7133333 223.166186,28.7133333 L223.166186,28.7133333 Z" id="Shape" fill="#259CC4"></path>
                </g>
            </g>
        </g>
    </g>
</svg>