<svg id="Layer_1" data-name="Layer 1" xmlns="http://www.w3.org/2000/svg" viewBox="0 0 1200 272"><defs><style>.cls-1{fill:#1595a3}.cls-2{fill:#ea8024}.cls-3{fill:#fafcf8}</style></defs><title>refocus</title><path class="cls-1" d="M583.51 45.09a94.79 94.79 0 1 0 94.79 94.79 94.79 94.79 0 0 0-94.79-94.79zm-6.13 117.41l-54.16 17.85 76.41-100.87L615.36 205zM4 48.31h86.48c27.94 0 47.27 7.31 59.54 19.85 10.71 10.45 16.19 24.55 16.19 42.57v.52c0 27.94-14.89 46.48-37.61 56.15l43.61 63.72h-58.5L76.9 175.75H54.7v55.36H4V48.31zm84.09 87.75c17.24 0 27.16-8.36 27.16-21.67v-.52c0-14.36-10.45-21.67-27.42-21.67H54.7v43.87h33.43zM178.74 48.31h147V91.4h-96.86v27.68h87.75v40h-87.75v29h98.19v43.09H178.74V48.31zM339.86 48.31H486.1v44.4h-95.57v31.08H477v42h-86.47v65.29h-50.67V48.31zM685.55 140.24v-.52c0-53.27 41-95.06 96.36-95.06 37.34 0 61.37 15.67 77.56 38.13l-38.12 29.51c-10.45-13.06-22.46-21.41-40-21.41-25.59 0-43.61 21.67-43.61 48.31v.52c0 27.42 18 48.83 43.61 48.83 19.06 0 30.29-8.88 41.26-22.2l38.13 27.16c-17.24 23.76-40.48 41.26-81 41.26-52.15 0-94.19-39.95-94.19-94.53zM867 150.95V48.31h51.45V149.9c0 26.38 13.32 38.91 33.69 38.91s33.69-12 33.69-37.61V48.31h51.45v101.33c0 59-33.69 84.87-85.66 84.87S867 208.14 867 150.95zM1040.44 204l28.2-33.69c18 14.36 38.13 21.94 59.28 21.94 13.58 0 20.89-4.7 20.89-12.53v-.52c0-7.57-6-11.75-30.82-17.5-38.91-8.88-68.94-19.85-68.94-57.45v-.52c0-33.95 26.9-58.5 70.77-58.5 31.08 0 55.36 8.36 75.21 24.29l-25.33 35.78c-16.71-11.75-35-18-51.18-18-12.27 0-18.28 5.22-18.28 11.75v.45c0 8.36 6.27 12 31.6 17.76 42 9.14 68.16 22.72 68.16 56.93v.52c0 37.34-29.51 59.54-73.9 59.54-32.39 0-63.2-10.18-85.66-30.25z"/><path class="cls-2" d="M579.47 41.06a94.79 94.79 0 1 0 94.79 94.79 94.79 94.79 0 0 0-94.79-94.79zm-6.13 117.41l-54.16 17.85 76.41-100.88L611.33 201z"/><path class="cls-3" d="M0 44.28h86.44c27.94 0 47.27 7.31 59.54 19.85 10.71 10.45 16.19 24.55 16.19 42.57v.52c0 27.94-14.89 46.48-37.61 56.15l43.61 63.72h-58.5l-36.81-55.37h-22.2v55.36H0V44.28zM84.09 132c17.24 0 27.16-8.36 27.16-21.67v-.52c0-14.36-10.45-21.67-27.42-21.67H50.66V132h33.43zM174.7 44.28h147v43.09h-96.86V115h87.75v40h-87.75v29H323v43.09H174.7V44.28zM335.83 44.28h146.24v44.4h-95.58v31.08h86.44v42h-86.44v65.29h-50.66V44.28zM681.51 136.2v-.52c0-53.27 41-95.06 96.36-95.06 37.34 0 61.37 15.67 77.56 38.13l-38.13 29.51c-10.45-13.06-22.46-21.41-40-21.41-25.59 0-43.61 21.67-43.61 48.31v.52c0 27.42 18 48.83 43.61 48.83 19.06 0 30.29-8.88 41.26-22.2l38.13 27.16c-17.24 23.76-40.48 41.26-81 41.26-52.13.01-94.18-39.95-94.18-94.53zM863 146.91V44.28h51.45v101.58c0 26.38 13.32 38.91 33.69 38.91s33.69-12 33.69-37.61V44.28h51.45V145.6c0 59-33.69 84.87-85.66 84.87S863 204.1 863 146.91zM1036.4 199.92l28.2-33.69c18 14.36 38.13 21.94 59.28 21.94 13.58 0 20.89-4.7 20.89-12.53v-.52c0-7.57-6-11.75-30.82-17.5-38.91-8.88-68.94-19.85-68.94-57.45v-.53c0-33.95 26.9-58.5 70.77-58.5 31.08 0 55.36 8.36 75.21 24.29l-25.33 35.78c-16.71-11.75-35-18-51.18-18-12.27 0-18.28 5.22-18.28 11.75v.52c0 8.36 6.27 12 31.6 17.76 42 9.14 68.16 22.72 68.16 56.93v.52c0 37.34-29.51 59.54-73.9 59.54-32.38-.02-63.2-10.23-85.66-30.31z"/></svg>