<?xml version="1.0" standalone="no"?>
<!DOCTYPE svg PUBLIC "-//W3C//DTD SVG 20010904//EN"
 "http://www.w3.org/TR/2001/REC-SVG-20010904/DTD/svg10.dtd">
<svg version="1.0" xmlns="http://www.w3.org/2000/svg"
 width="1200.000000pt" height="1200.000000pt" viewBox="0 0 1200.000000 1200.000000"
 preserveAspectRatio="xMidYMid meet">
<metadata>
Created by potrace 1.11, written by Peter Selinger 2001-2013
</metadata>
<g transform="translate(0.000000,1200.000000) scale(0.100000,-0.100000)"
fill="#000000" stroke="none">
<path d="M5669 11996 c-2 -2 -49 -7 -104 -11 -55 -3 -116 -8 -135 -10 -19 -2
-60 -7 -90 -10 -116 -13 -148 -17 -240 -31 -141 -22 -146 -23 -260 -45 -1048
-206 -2051 -705 -2830 -1408 -123 -111 -341 -323 -336 -328 1 -2 26 4 54 12
51 15 202 48 277 60 65 10 356 14 405 5 150 -28 242 -63 353 -137 264 -175
447 -526 541 -1033 32 -175 46 -285 63 -515 10 -131 10 -762 0 -940 -14 -254
-29 -444 -42 -555 -2 -19 -7 -64 -10 -100 -4 -36 -8 -76 -10 -90 -3 -14 -7
-52 -10 -86 -3 -33 -8 -76 -10 -95 -2 -19 -7 -59 -11 -89 -3 -30 -8 -64 -10
-75 -2 -11 -6 -42 -10 -70 -5 -48 -10 -87 -19 -148 -2 -15 -9 -64 -15 -110 -6
-45 -13 -93 -16 -107 -8 -45 -45 -284 -50 -320 -2 -19 -8 -57 -14 -85 -5 -27
-11 -63 -14 -80 -6 -42 -25 -156 -30 -181 -2 -12 -7 -37 -10 -55 -3 -19 -8
-45 -11 -59 -3 -14 -8 -45 -10 -70 -5 -38 32 82 50 165 2 11 14 56 25 100 12
44 23 87 25 95 5 24 35 143 40 163 3 9 7 25 9 35 53 222 275 1002 398 1397
188 606 436 1286 603 1650 15 33 41 89 57 125 39 85 163 333 196 390 284 500
529 757 773 814 61 15 233 15 330 1 133 -19 151 -23 249 -52 289 -86 477 -267
582 -563 11 -30 24 -71 29 -90 14 -61 29 -134 35 -170 3 -19 7 -46 10 -60 16
-94 19 -299 18 -1205 -1 -1075 -8 -1603 -29 -2105 -9 -241 -22 -478 -30 -555
-2 -27 -7 -86 -10 -130 -4 -44 -8 -98 -10 -120 -12 -130 -22 -222 -30 -275 -2
-14 -9 -61 -15 -105 -21 -150 -29 -196 -36 -207 -3 -4 -1 -8 4 -8 9 0 19 21
129 280 75 175 344 844 443 1100 158 410 522 1313 595 1475 13 28 45 104 73
170 28 67 64 151 81 188 17 37 45 96 61 132 17 36 30 67 30 69 0 16 325 678
403 821 30 55 69 127 87 160 129 238 387 645 507 800 5 6 40 51 78 100 149
193 325 374 400 412 92 48 215 26 385 -67 30 -16 64 -34 76 -39 17 -8 103 -61
168 -104 172 -114 373 -306 421 -402 39 -78 39 -146 0 -230 -96 -209 -279
-718 -320 -892 -3 -10 -25 -95 -49 -189 -43 -162 -113 -490 -136 -634 -5 -36
-12 -76 -15 -89 -2 -12 -7 -43 -9 -67 -3 -24 -8 -54 -10 -66 -7 -32 -24 -160
-42 -318 -2 -25 -7 -61 -9 -80 -3 -19 -7 -66 -11 -105 -3 -38 -7 -86 -9 -105
-2 -19 -7 -78 -10 -130 -4 -52 -8 -114 -10 -137 -4 -46 -14 -263 -20 -448 -6
-162 -6 -663 0 -750 2 -38 7 -113 10 -165 3 -52 8 -106 10 -120 2 -14 6 -56
10 -93 3 -37 8 -76 10 -85 1 -9 6 -42 9 -72 4 -30 8 -66 11 -80 2 -14 9 -54
15 -90 5 -36 12 -76 15 -90 3 -14 8 -41 11 -60 17 -101 92 -383 136 -515 163
-487 382 -786 638 -871 114 -38 331 -19 482 43 256 103 531 424 655 763 74
204 183 566 197 654 4 21 8 42 11 46 12 20 85 415 100 545 3 28 8 59 10 70 2
11 7 52 10 90 4 39 8 81 11 95 19 117 27 808 11 990 -12 143 -26 276 -32 320
-2 14 -9 61 -15 105 -13 95 -19 128 -36 228 -5 30 -31 159 -41 202 -2 11 -6
31 -9 45 -35 176 -195 703 -254 835 -5 11 -29 70 -54 131 -62 154 -200 444
-276 579 -30 53 -148 255 -163 279 -282 447 -565 798 -927 1151 -250 244 -557
492 -855 692 -107 71 -345 218 -385 236 -8 4 -44 24 -80 43 -128 71 -366 187
-494 240 -72 31 -140 59 -151 64 -156 70 -693 236 -885 274 -35 7 -68 14 -120
26 -25 5 -72 14 -105 20 -33 5 -71 12 -85 15 -39 8 -288 43 -350 49 -66 7
-160 16 -215 22 -50 6 -781 14 -786 10z"/>
<path d="M1538 9311 c-363 -117 -955 -811 -1242 -1459 -35 -79 -135 -435 -160
-568 -3 -16 -16 -87 -30 -159 -28 -149 -33 -173 -41 -235 -3 -25 -8 -56 -10
-70 -7 -39 -13 -89 -21 -165 -3 -38 -8 -81 -10 -95 -26 -211 -26 -924 1 -1123
2 -18 7 -63 10 -101 4 -38 8 -79 10 -90 2 -12 6 -43 10 -71 3 -27 8 -57 10
-65 2 -8 6 -35 9 -60 3 -25 8 -55 10 -66 2 -12 7 -38 10 -59 24 -150 86 -408
153 -635 41 -140 130 -405 153 -455 5 -11 23 -54 39 -95 149 -378 444 -915
675 -1226 17 -23 40 -55 51 -70 103 -144 280 -358 430 -519 359 -387 774 -731
1226 -1017 204 -130 563 -318 784 -412 61 -26 119 -51 130 -56 277 -122 902
-304 1190 -345 17 -3 41 -7 55 -10 26 -5 208 -32 273 -40 97 -12 116 -15 172
-19 33 -3 96 -9 140 -13 168 -16 884 -8 1006 12 13 2 55 6 93 10 38 4 79 8 90
10 12 2 44 6 71 10 96 13 120 16 135 20 8 3 34 7 57 10 67 8 287 54 418 86
743 185 1397 486 2055 946 117 82 378 290 505 402 69 61 458 451 454 455 -2 2
-46 -7 -97 -20 -52 -13 -115 -26 -140 -30 -26 -3 -56 -8 -67 -11 -25 -5 -293
-5 -320 1 -11 2 -42 7 -70 10 -133 18 -331 85 -463 158 -141 78 -341 248 -428
364 -16 21 -32 41 -36 44 -3 3 -41 57 -83 120 -77 115 -183 320 -249 480 -52
127 -141 405 -171 538 -2 9 -11 44 -19 77 -48 199 -104 528 -136 800 -6 50
-12 106 -15 125 -2 19 -7 69 -10 110 -3 41 -8 95 -10 120 -43 427 -52 1393
-20 2110 4 85 15 404 19 528 1 45 -1 82 -5 82 -10 0 -150 -278 -209 -416 -126
-291 -319 -838 -415 -1174 -30 -105 -76 -258 -89 -300 -8 -25 -37 -126 -65
-225 -28 -99 -70 -252 -95 -340 -39 -141 -206 -762 -271 -1010 -188 -721 -373
-1378 -471 -1673 -19 -57 -34 -112 -34 -123 0 -33 -30 -93 -58 -117 -81 -71
-144 -81 -479 -77 -153 2 -303 6 -333 9 -92 9 -174 18 -195 22 -224 41 -332
94 -376 182 -19 39 -21 53 -15 145 4 56 9 118 11 137 10 98 17 241 30 595 24
634 24 3637 0 4310 -4 108 -15 300 -20 355 -2 25 -7 79 -10 120 -4 41 -8 86
-10 100 -2 14 -6 48 -10 75 -23 196 -58 333 -96 373 -25 28 -71 23 -139 -14
-179 -98 -384 -441 -595 -999 -42 -112 -156 -444 -160 -465 -1 -3 -15 -50 -32
-105 -94 -297 -249 -892 -338 -1299 -31 -138 -60 -269 -65 -291 -5 -22 -12
-53 -15 -70 -7 -38 -10 -52 -29 -145 -8 -41 -18 -91 -21 -110 -3 -19 -12 -62
-20 -95 -7 -33 -16 -78 -19 -100 -4 -22 -13 -71 -21 -110 -7 -38 -16 -86 -19
-105 -3 -19 -12 -69 -20 -110 -8 -41 -24 -131 -35 -200 -12 -69 -23 -136 -26
-150 -2 -13 -7 -42 -10 -65 -3 -22 -8 -47 -10 -55 -2 -8 -7 -35 -10 -60 -7
-55 -9 -64 -34 -215 -11 -66 -22 -140 -25 -165 -3 -25 -8 -56 -11 -70 -3 -14
-7 -41 -10 -60 -3 -19 -9 -70 -15 -115 -6 -44 -13 -91 -15 -104 -2 -13 -7 -45
-11 -70 -3 -25 -8 -58 -10 -72 -2 -15 -6 -47 -9 -70 -5 -41 -11 -90 -20 -149
-3 -14 -7 -45 -10 -70 -3 -25 -7 -63 -10 -85 -3 -22 -7 -58 -10 -80 -3 -22 -8
-58 -10 -80 -3 -22 -7 -56 -10 -75 -3 -19 -7 -73 -10 -120 -7 -109 -11 -129
-41 -219 -35 -104 -92 -187 -174 -252 -124 -98 -272 -140 -470 -134 -126 5
-188 15 -298 50 -409 130 -715 465 -725 796 -2 65 9 184 18 199 2 3 6 32 9 64
4 33 11 78 15 100 5 23 12 64 16 91 6 51 10 80 21 138 3 17 7 43 9 57 4 23 31
204 40 260 2 14 6 45 10 70 8 55 14 91 19 128 3 15 8 47 11 72 3 25 8 52 10
60 2 8 7 40 11 70 4 30 8 64 10 75 1 11 5 40 8 65 4 25 8 56 11 70 3 14 8 45
11 70 5 39 14 107 29 200 2 14 6 48 10 75 3 28 8 64 10 80 3 17 11 77 20 135
8 58 17 123 20 145 8 62 15 117 20 155 11 86 16 127 40 320 35 280 34 275 39
318 8 64 15 125 21 187 4 33 8 71 10 85 2 14 7 57 11 95 3 39 8 79 10 89 2 10
6 51 9 90 3 39 8 82 10 96 2 14 6 57 10 95 6 75 14 156 20 220 5 50 15 162 20
235 5 69 16 212 20 265 2 22 6 96 10 165 5 69 9 143 10 165 22 337 23 974 1
1155 -2 14 -7 57 -11 95 -9 91 -48 283 -73 361 -32 96 -70 163 -122 214 -67
65 -132 76 -242 41z"/>
<path d="M3051 5164 c0 -11 3 -14 6 -6 3 7 2 16 -1 19 -3 4 -6 -2 -5 -13z"/>
</g>
</svg>
