<svg version="1" xmlns="http://www.w3.org/2000/svg" width="933.333" height="933.333" viewBox="0 0 700.000000 700.000000"><path d="M340.7 15.6c-.1.1-5.6.5-12.2.9s-12.9.8-14 .9c-9.9 1.3-14.2 1.9-15.5 2.1-.8.1-3.5.6-6 1-5.6.9-6.4 1.1-12.5 2.5-2.7.6-6.1 1.4-7.5 1.6-6.3 1.1-31.4 8.6-36.5 10.9-1.6.8-5.2 2.1-8 3-7.6 2.6-25.7 11-38 17.7-27.5 15-50.6 32.1-73 53.9l-8.9 8.7 6.6-1.8c8.2-2.3 17.1-3.3 26.5-3.2 22.7.4 38.3 11.6 48.9 35 3.8 8.1 9 27 10 35.5.3 2.9.7 6.3 1 7.7 2.5 15.8 2.5 72.4 0 94-.3 1.9-1 8.7-1.6 15-.7 6.3-1.4 12.3-1.6 13.4-.2 1-.6 4.4-1 7.5-.3 3.1-.8 6.5-1 7.6-.2 1-.6 3.7-.9 6-3.1 23-2.8 21-5.5 36-4.6 26-3.9 24.5 5.1-10.3 3.8-14.7 7.1-27.4 7.4-28.2.2-.8 3.5-12.3 7.4-25.5 33-113.8 66.3-179.4 95.9-189.1 4.3-1.3 7.2-1.6 14.5-1 35.4 2.5 52 18.7 56.5 55.1 1.4 11.6.4 167.3-1.2 190.5-.3 3-.7 10.7-1 17-.7 12.4-1.4 21.1-2.1 25-.3 1.4-.7 5.4-1.1 9-.3 3.6-.7 6.7-.9 7-.2.3-.6 3-.9 6l-.6 5.5 3.8-9c2.2-5 4.8-11 6-13.5 1.8-4 10-24.7 32.9-82.5 7.4-18.7 16.5-41.1 18.3-45 .5-1.1 4.3-10.1 8.5-20 9.1-21.4 30.7-65.5 39.8-81.2 9.1-15.7 25.2-40 28.7-43.3.3-.3 2.3-2.7 4.5-5.5 8.5-10.5 17-18.3 20.9-19 6.9-1.3 16.1 2.2 31.1 11.9 14.8 9.6 26.5 22.3 26.5 28.8 0 1.5-2.4 8.8-5.4 16.1-8.3 20.7-17.1 49.8-21 69.7-3.7 18.7-5.3 28-6.1 36.6-.4 3.8-.9 7.1-1 7.5-.2.3-.6 3.9-1 8-.3 4-.8 9.2-1 11.4-3.3 29.8-3.3 89.6 0 106.5.2 1 .6 4.5 1 7.7 1.9 18.3 8.9 43.5 16.5 59.9 10.2 22 22.3 32.7 37 32.8 9.6.1 13.4-.8 21.4-4.8 11.3-5.6 21.6-16.9 30.1-32.9 4.9-9.1 14-39.5 18.1-60.1 3.1-15.8 5.7-44.2 5.7-62.6.1-7.2-1.1-29.8-1.7-35-2.5-19.7-3.7-26.9-7.2-42-6.8-29.1-21.4-66.2-34.5-87.8-2.1-3.5-3.9-6.6-3.9-6.8 0-.3-3.8-6.2-8.5-13.2-9.3-13.9-23.6-32.3-32.6-41.7-3.2-3.3-7-7.4-8.6-9-8.3-8.8-31.9-28.9-43.3-36.8-20.9-14.5-38.2-24.4-58.1-33.2-11.5-5.1-31.9-12.7-40.7-15.1-22-6.1-37.5-9.3-58.2-11.8-9-1.1-45.5-2.7-46.3-2z"/><path d="M102.5 165.4c-14.3 4.5-31.7 20.6-50.3 46.8-3.4 4.7-6.2 8.9-6.2 9.3 0 .4-.8 1.9-1.9 3.3-5.6 8-12.6 23.6-16.2 36.2-2.1 7.4-4.1 15.1-4.4 17-.3 1.9-1.5 8-2.5 13.5s-2.2 12.9-2.5 16.5c-.4 3.6-.9 7.4-1.1 8.5-2 10.3-1.9 53.4.1 69.5.3 1.9.7 5.7 1 8.5.3 2.7.8 5.7 1 6.5.2.8.7 3.5 1 6 .4 2.5 1.1 6.5 1.7 9 .5 2.5 1.1 5.2 1.3 6 1.9 8.7 3 13 5.6 22 3.2 11 9.7 29.4 13.2 37 14.1 31.6 28.3 55 48 79.4 8.8 10.9 8 10 19.2 21.6 21.6 22.3 51.1 45.5 72.5 57.1 2.5 1.3 4.7 2.6 5 2.9.3.3 5 2.8 10.5 5.7 22.3 11.5 52.6 22.5 77.5 28.1 14.3 3.3 16.2 3.6 28 5.2 4.1.6 8.9 1.3 10.5 1.5 5 .7 26.4 1.8 36 1.8 9.3 0 35.6-1.3 36.5-1.8.3-.2 3.4-.6 7-1s7.4-.9 8.5-1.1c1.1-.2 4-.7 6.5-1 2.5-.3 4.8-.8 5.1-1 .4-.2 2.4-.6 4.5-1 9.4-1.4 34.7-8.7 49.4-14.2 49.1-18.5 90-45.8 127.4-85l3.9-4.1-3.8 1c-2 .6-4.7 1.3-5.9 1.6-5 1.3-27.5 1.1-33.7-.3-43.1-9.8-69.8-50.9-81.5-124.9-2.2-14.3-2.2-14.3-2.9-21.5-.4-3.6-.8-8.1-1-10-.2-1.9-.7-8-1.1-13.5-.3-5.5-.8-12.3-1-15-.5-6.6-.4-75.4.1-87.5.2-5.2.6-16.9.9-26l.6-16.5-3.1 5.5c-7.3 13-17.5 38.7-25.3 63.5-2.6 8.2-5.4 16.8-6.2 19-1.5 4.5-15.3 52.2-15.8 55.1-.2 1.1-2.1 8-4.1 15.4-6.2 23-10.1 37.3-19.5 71.5-4.9 18.1-10.9 39.4-13.4 47.2-2.4 7.8-4.7 15.7-5.1 17.5-.4 1.8-1.2 3.9-1.8 4.6-1.4 1.8-5.8 4-9.3 4.7-5.3 1-40.3.3-46.9-.9-12.5-2.4-18.7-5.3-21.4-9.7-1.4-2.4-1.8-4.6-1.5-10.3.2-4 .5-8.6.8-10.2 2.8-14.9 2.9-261.3.1-289.9-.1-1.7-.6-6.8-1-11.4-.9-10.2-3.8-22.8-5.7-24.7-2.4-2.5-7.6-.6-12.8 4.7-9.6 9.7-17 23.4-28.5 52.9-5.5 13.9-17.9 54.7-21 68.5-.2 1.1-1.6 6.7-3 12.5-2.5 10.2-8.9 38.7-9.9 44.3-.3 1.5-.7 3.5-1 4.5-.3.9-.7 2.8-1 4.2-1.9 11-3.8 21.2-4.6 25-.5 2.5-1.2 5.6-1.4 7-.2 1.4-.7 4.1-1 6-.3 1.9-.8 4.8-1.1 6.5-.2 1.6-.7 4.1-.9 5.5-.3 1.4-.8 4.1-1 6-.3 1.9-.8 4.6-1 6-.3 1.4-.7 4.1-1 6-.3 1.9-.7 4.4-1 5.5-.2 1.1-.7 4.9-1.1 8.5-.4 3.6-.9 6.7-1 7.1-.4.5-3.4 21.6-4.1 27.8-.2 1.9-.5 4.8-.8 6.5-.3 1.7-.8 5.8-1.1 9.1-.4 3.3-.9 6.2-1 6.5-.2.3-.6 4.4-1 9-.8 10.2-2.8 17.2-6.4 22.5-17.2 25.4-69.2 14.1-84.8-18.4-3.2-6.6-3.7-8.6-3.7-15.1-.1-8.4.1-10.2 5-40.5.5-3.1.9-5.9 2-13 .3-2.2.7-5.1.9-6.5.2-1.4.7-5.2 1.1-8.5.3-3.3.8-6.2.9-6.5.2-.3.9-4.4 1.5-9 2-14.7 2.1-15.4 2.5-18 .3-1.4.7-4.3 1-6.5.3-2.2.8-5.1 1-6.5.3-1.4.7-4.5 1-7 .3-2.5 1.8-15.1 3.4-28 3.4-27.4 4-32.5 5.5-48.5.4-3.9.9-8.1 1.1-9.5.6-2.9 1.1-9.8 2-23.5.4-5.5.9-11.2 1-12.7.2-1.4.6-7.7 1-14 .4-6.2.9-13.1 1.1-15.3.5-6.9.5-48.7-.1-55.5-2.4-27.1-8.6-42.1-17.8-43.5-1.2-.2-4 .2-6.2.9z"/></svg>