<svg width="40" height="40" viewBox="0 0 40 40" version="1.1" xmlns="http://www.w3.org/2000/svg"><title>icon-linkedin</title><g id="Page-1" stroke="none" stroke-width="1" fill="none" fill-rule="evenodd"><g id="icon-linkedin"><circle id="Oval-2" fill="#25E593" cx="20" cy="20" r="20"/><g id="icon_linkedin" transform="translate(9 8)" fill="#FAFAFA"><g id="Layer_1"><path d="M5.555 2.554c.01.727-.242 1.334-.755 1.822-.512.488-1.187.732-2.024.732h-.03c-.817 0-1.474-.244-1.972-.732S.028 3.281.028 2.554c0-.736.257-1.346.77-1.83C1.31.243 1.98 0 2.806 0c.826 0 1.489.241 1.987.724s.752 1.093.762 1.83zm-.314 4.57v14.802H.312V7.124h4.929zm17.729 6.318v8.484h-4.914V14.01c0-1.046-.201-1.865-.605-2.457-.403-.593-1.032-.89-1.888-.89-.627 0-1.153.173-1.575.516-.42.338-.749.778-.952 1.277-.11.298-.165.7-.165 1.21v8.26H7.96c.02-3.973.03-7.195.03-9.666 0-2.47-.005-3.944-.015-4.42l-.015-.717h4.914v2.15h-.03c.182-.295.387-.574.613-.837.257-.283.539-.543.843-.776a3.886 3.886 0 0 1 1.3-.65 5.923 5.923 0 0 1 1.71-.231c1.702 0 3.071.565 4.107 1.695 1.035 1.13 1.553 2.786 1.554 4.968z" id="Shape"/></g></g></g></g></svg>