<svg width="40" height="40" viewBox="0 0 40 40" version="1.1" xmlns="http://www.w3.org/2000/svg"><title>icon-twitter</title><g id="Page-1" stroke="none" stroke-width="1" fill="none" fill-rule="evenodd"><g id="icon-twitter"><circle id="Oval-2" fill="#25E593" cx="20" cy="20" r="20"/><g id="icon_twitter" transform="translate(9 11)" fill="#FAFAFA"><g id="Layer_1"><path d="M25.034 2.446a10.739 10.739 0 0 1-2.57 2.649 14.557 14.557 0 0 1-.587 4.783 14.881 14.881 0 0 1-1.832 3.942 15.496 15.496 0 0 1-2.927 3.338c-1.131.968-2.496 1.74-4.092 2.317-1.597.576-3.305.864-5.124.864-2.866 0-5.489-.767-7.868-2.3.41.045.824.066 1.237.064 2.38 0 4.5-.73 6.361-2.189a5.135 5.135 0 0 1-4.79-3.553c.32.05.643.077.967.08.455 0 .909-.06 1.349-.175a5.04 5.04 0 0 1-2.943-1.769c-.777-.936-1.166-2.022-1.166-3.26v-.063a5.08 5.08 0 0 0 2.316.65A5.116 5.116 0 0 1 1.7 6.002 5.136 5.136 0 0 1 1.78.973a14.517 14.517 0 0 0 4.67 3.783 14.272 14.272 0 0 0 5.893 1.58 5.679 5.679 0 0 1-.126-1.175c0-1.417.5-2.625 1.499-3.625 1-1 2.208-1.499 3.625-1.499 1.48 0 2.728.54 3.743 1.618A10.048 10.048 0 0 0 24.337.418c-.394 1.215-1.145 2.155-2.253 2.82a10.202 10.202 0 0 0 2.95-.792z" id="Shape"/></g></g></g></g></svg>