<svg width="40" height="40" viewBox="0 0 40 40" version="1.1" xmlns="http://www.w3.org/2000/svg"><title>icon-facebook</title><g id="Page-1" stroke="none" stroke-width="1" fill="none" fill-rule="evenodd"><g id="icon-facebook"><circle id="Oval-2" fill="#25E593" cx="20" cy="20" r="20"/><g id="icon_facebook" transform="translate(14 7)" fill="#FAFAFA"><g id="Layer_1"><path d="M8.07 8.524h4.052l-.471 4.477H8.073v12.99H2.695V13H.015V8.524h2.68V5.829c0-1.913.452-3.36 1.356-4.342C4.955.505 6.442.013 8.513.013h3.578v4.476H9.852c-.41 0-.738.034-.985.104-.247.07-.425.193-.536.37-.105.166-.178.351-.213.545-.036.258-.052.52-.047.78v2.239-.003z" id="Shape"/></g></g></g></g></svg>