<svg width="80" height="56" viewBox="0 0 80 56" version="1.1" xmlns="http://www.w3.org/2000/svg" xmlns:xlink="http://www.w3.org/1999/xlink"><title>icon-research</title><defs><rect id="path-1" x="0" y="0" width="80" height="56" rx="3"/><mask id="mask-2" maskContentUnits="userSpaceOnUse" maskUnits="objectBoundingBox" x="0" y="0" width="80" height="56" fill="#fff"><use xlink:href="#path-1"/></mask></defs><g id="Page-1" stroke="none" stroke-width="1" fill="none" fill-rule="evenodd"><g id="home" transform="translate(-97 -321)"><g id="Group" transform="translate(82 321)"><g id="Icon/Graph" transform="translate(15)"><use id="Rectangle-7" stroke="#FAFAFA" mask="url(#mask-2)" stroke-width="6" xlink:href="#path-1"/><rect id="Rectangle-9" fill="#FAFAFA" fill-rule="evenodd" x="8" y="33" width="3" height="15" rx="1.5"/><rect id="Rectangle-9-Copy" fill="#FAFAFA" fill-rule="evenodd" x="13" y="36" width="3" height="12" rx="1.5"/><rect id="Rectangle-9-Copy-2" fill="#FAFAFA" fill-rule="evenodd" x="18" y="29" width="3" height="19" rx="1.5"/><rect id="Rectangle-9-Copy-3" fill="#FAFAFA" fill-rule="evenodd" x="23" y="24" width="3" height="24" rx="1.5"/><rect id="Rectangle-9-Copy-4" fill="#FAFAFA" fill-rule="evenodd" x="28" y="27" width="3" height="21" rx="1.5"/><rect id="Rectangle-9-Copy-5" fill="#FAFAFA" fill-rule="evenodd" x="33" y="20" width="3" height="28" rx="1.5"/><rect id="Rectangle-9-Copy-6" fill="#FAFAFA" fill-rule="evenodd" x="38" y="27" width="3" height="21" rx="1.5"/><rect id="Rectangle-9-Copy-7" fill="#FAFAFA" fill-rule="evenodd" x="43" y="24" width="3" height="24" rx="1.5"/><rect id="Rectangle-9-Copy-8" fill="#4CF0AA" fill-rule="evenodd" x="48" y="22" width="3" height="26" rx="1.5"/><rect id="Rectangle-9-Copy-9" fill="#4CF0AA" fill-rule="evenodd" x="53" y="19" width="3" height="29" rx="1.5"/><rect id="Rectangle-9-Copy-10" fill="#4CF0AA" fill-rule="evenodd" x="58" y="12" width="3" height="36" rx="1.5"/><rect id="Rectangle-9-Copy-11" fill="#4CF0AA" fill-rule="evenodd" x="63" y="16" width="3" height="32" rx="1.5"/><rect id="Rectangle-9-Copy-12" fill="#4CF0AA" fill-rule="evenodd" x="68" y="9" width="3" height="39" rx="1.5"/></g></g></g></g></svg>